<?xml version="1.0" encoding="UTF-8"?>
<!DOCTYPE svg PUBLIC "-//W3C//DTD SVG 1.1//EN" "http://www.w3.org/Graphics/SVG/1.1/DTD/svg11.dtd">
<!-- Creator: CorelDRAW -->
<svg xmlns="http://www.w3.org/2000/svg" xml:space="preserve" width="91.2789mm" height="38.1957mm" version="1.1" style="shape-rendering:geometricPrecision; text-rendering:geometricPrecision; image-rendering:optimizeQuality; fill-rule:evenodd; clip-rule:evenodd"
viewBox="0 0 9113.66 3813.62"
 xmlns:xlink="http://www.w3.org/1999/xlink"
 xmlns:xodm="http://www.corel.com/coreldraw/odm/2003">
 <defs>
  <style type="text/css">
   <![CDATA[
    .fil2 {fill:url(#id0)}
    .fil1 {fill:url(#id1)}
    .fil0 {fill:url(#id2)}
   ]]>
  </style>
  <linearGradient id="id0" gradientUnits="userSpaceOnUse" x1="1744.33" y1="3799.35" x2="7344.75" y2="-1193.49">
   <stop offset="0" style="stop-opacity:1; stop-color:#CC33FF"/>
   <stop offset="1" style="stop-opacity:1; stop-color:#00CCFF"/>
  </linearGradient>
  <linearGradient id="id1" gradientUnits="userSpaceOnUse" xlink:href="#id0" x1="1744.33" y1="3799.35" x2="7344.75" y2="-1193.49">
  </linearGradient>
  <linearGradient id="id2" gradientUnits="userSpaceOnUse" xlink:href="#id0" x1="1744.33" y1="3799.35" x2="7344.75" y2="-1193.49">
  </linearGradient>
 </defs>
 <g id="Layer_x0020_1">
  <metadata id="CorelCorpID_0Corel-Layer"/>
  <g id="_105553337187424">
   <path class="fil0" d="M7632.05 3813.62l122.08 0c-6.81,-12.62 -1.94,-4.89 0.25,-8.46 47.92,0 95.94,-0.31 143.85,0.13 12.76,0.12 20.13,0.85 31.28,-2.53 14.8,-4.48 -1.65,-1.28 12.23,-4.68 23.88,-5.85 50.43,0.92 74.87,-1.22 9.21,-0.8 -0.74,0.7 7.46,-1 9.13,-1.88 4.18,-0.14 9.29,-3.38 7.21,3.2 1.79,2.45 5.13,0.87l3.32 -5.09c8.41,0 17.42,0.42 25.68,0.31l22.11 -3.25c0.7,-0.22 2.04,-0.71 2.94,-1.29 7.21,3.21 1.79,2.45 5.13,0.88 0.13,-0.07 1.04,-0.53 1.16,-0.62l2.17 -4.48c8.41,0 17.42,0.43 25.68,0.31l22.11 -3.24c0.7,-0.22 2.04,-0.72 2.94,-1.29l7.9 -2.46c0.1,-0.16 0.26,-1.23 0.56,-1.78 4.58,0 12.95,0.53 17.06,0.15 9.66,-0.87 -1.1,0.77 7.46,-0.99 9.15,-1.88 4.18,-0.14 9.3,-3.38 7.2,3.2 1.78,2.45 5.12,0.87 0.14,-0.06 1.04,-0.52 1.16,-0.62l1.61 -2.71c0.11,-0.16 0.27,-1.23 0.57,-1.78 4.57,0 12.95,0.53 17.05,0.16 9.66,-0.88 -1.09,0.76 7.47,-1 9.15,-1.88 4.18,-0.14 9.29,-3.38 7.21,3.2 1.79,2.45 5.13,0.87 0.13,-0.06 1.04,-0.52 1.16,-0.62l2.17 -4.47c33.41,0 17.67,-4.46 42.78,-8.4l191.81 -54.77c0.2,-0.14 0.88,-0.89 1.08,-1.06 13.85,-11.11 38.2,-14.55 44.07,-18.11 3.93,-2.38 3.35,-1.9 7.83,-3.75l32.67 -11.93c0.25,-0.19 1.01,-1.01 1.29,-1.22l11.51 -7.33c9.95,-4.72 15.68,-4.86 18.76,-6.6 11.68,-6.57 -10.95,7.64 3.56,-2.99l54.55 -29.8c8.57,-6.67 -6.53,1.85 6.73,-5.39l37.78 -24.19c19.94,-8.32 13.98,-4.7 27.75,-18.55 0.15,-0.15 0.92,-0.89 1.07,-1.03l26.19 -17.04c0.47,-0.33 1.4,-1.16 1.83,-1.48l27.18 -19.27c0.14,-0.16 0.81,-0.98 0.96,-1.14 0.15,-0.16 0.8,-1.03 0.95,-1.2 9.36,-10.35 -1.73,-9.93 26.07,-9.93l-1.9 -13.89c0.09,-0.31 0.62,-1.39 0.75,-1.66 4.63,-9.14 6.61,-5.61 9.69,-7.71l29.57 -23.53c12.2,-10.53 16.59,-0.95 8.38,-20.85l21.14 0c-7.29,-17.63 3.06,0.72 -4.23,-16.91l21.14 0 -1.87 -13.87c2.97,-9.6 8.76,-9.04 9.68,-9.97 0.16,-0.16 0.88,-0.96 1.04,-1.12l9.75 -9.39c6.18,-5.78 1.24,-10.52 8.69,-15.58 12.53,-8.5 5.89,9.68 13.55,-11.84l5.4 -8.11c4.21,-7.32 4.24,-13.91 12.35,-21.59l3.54 -2.97c1.99,-1.9 1.45,-12.12 7.32,-18.37 5.89,-6.29 10.73,-5.21 13.04,-13.23l4.8 -10.97c3.3,-3.33 -0.66,3.99 2.82,-2.83l4.34 -11.53c11.04,-16.9 5.96,-16.7 15.96,-25.73l2.48 -1.89c10.24,-9.46 -4.21,-13.34 6.88,-24.81l13.41 -25.74c5.03,-19.95 5.08,6.19 8.18,-25.39 0.99,-10.04 5.73,-4 8.93,-18.46 0.57,-2.59 0.75,-3.53 2.12,-6.57 7.47,-16.55 6.31,1.27 6.04,-21.45 -0.06,-4.41 -0.54,-6.55 1.27,-9.94l12.36 -11.36c9.3,-8.55 -2.34,-32.99 8.26,-42.56 4.09,-3.7 0.13,-16.31 5.84,-23.46 5.84,-7.33 6.65,1.5 6.38,-13.63 -0.21,-11.8 -2.7,-23.88 4.68,-30.54 6.19,-5.58 3.58,-17.52 3.56,-28.93 -0.09,-58.45 9.67,-0.86 8.41,-59.21 -0.78,-36.3 8.45,6.06 8.47,-63.38l0.34 -1912.84c-0.79,-15.96 -9.28,-17.38 -8.91,-33.82 0.23,-10.02 -0.01,-13.34 0.14,-23.25l-0.47 -16.94c-5.95,-15.49 -8.71,7.35 -8.13,-18.78 1.64,-72.75 -10.29,-21.77 -8.5,-70.03l2.3 -11.54 -12.69 0c0.31,-0.56 0.61,-2.25 0.66,-1.79l-0.83 -37.32c-0.25,-0.5 -1,-1.61 -1.26,-2.11l-4.94 -10.58c-1.32,-6.98 2.24,-12.51 -1.23,-18.57 -8.22,-14.39 -4.63,3.27 -7.15,-8.86 -0.58,-2.79 -16.61,-37.49 -6.38,-56.05l-10.88 0.05c-0.22,0 -1.25,0.2 -1.8,-0.05 3.5,-6.37 6.07,4.47 1.78,-9.5l-3.1 -3.98c-5.46,-5.32 -7.67,-11.7 -2.92,-20.34l-12.68 0c1.77,-3.2 1.23,-2.04 1.92,-5.47 1.01,-5.04 0.79,-0.43 0.71,-6.07 -0.23,-15.84 -11.48,-16.2 -9.15,-31.75 1.19,-7.92 -0.3,-2.74 2.3,-7.43 -0.59,-0.27 -1.77,-0.52 -1.93,0.14 -0.15,0.64 -1.64,0.16 -1.84,0.18l-13.79 -14.26c-7.83,-15.57 -6.8,-3.23 -10.15,-18.49 -2.6,-11.8 -13.87,-21.13 -6.11,-35.22l-8.27 0.83c-11.77,-2.73 2.07,4.6 -2.93,-2.11l-3.03 -5.99c-0.75,-1.49 -2.99,-6.25 -3.25,-6.7 -5.11,-8.58 3.31,-0.27 -2.78,-3.51 -2.91,-1.54 -3.79,3.04 -9.35,0.58 1.41,-2.55 6.7,-4.08 0,-12.42 -0.16,-0.21 -1.13,-0.88 -1.31,-1.06 -0.19,-0.18 -1.23,-0.72 -1.42,-0.89l-3.4 -13.78c0.76,-3.58 0.14,-2.46 1.91,-5.67l-16.5 -11.94c-8.46,-15.41 -8.07,8.31 -18.26,-18.59l0.95 -20.2 -21.14 0 0.47 -16.58c-7.87,0.73 -4.02,2.96 -7.43,-1.61l-10.34 -16.1c-14.61,-2.22 -0.57,6.08 -12.92,-13.5 -5.28,-8.38 5.88,-0.44 -7.41,-2.46 -5.28,-0.8 -6.99,-10.47 -9.5,-14.46 -16.23,-25.73 9.29,24.63 -16.9,-16.9 -9.02,-14.29 -2.5,10.94 -14.75,-12.58l-9.59 -7.07c-12.75,-1.8 4.11,5.16 -3.99,-2.68l-3.33 -3.59c-6.93,-6.2 -8.32,-0.7 -11.6,-2.74 -0.13,-0.08 -0.85,-0.78 -0.98,-0.89 -0.15,-0.12 -0.84,-0.97 -0.99,-1.12l-28.7 -22.5c-9.76,0.18 -0.23,4.44 -5.12,-3.41 -16.12,-25.87 -10,-10.41 -15.92,-15.32l-2.03 -2.41c-8.36,-8.46 -0.13,-5.29 -8.46,-4.97 -16.21,0.61 9.25,8.98 -5.45,-0.11 -0.13,-0.08 -0.85,-0.78 -0.98,-0.89l-17.89 -16.6c-6.55,-4.77 5.07,5.26 -3.33,-2.67l-9.59 -4.87c-8.69,0.5 -6.86,2.65 -11.45,-1.26 -0.16,-0.13 -0.84,-1.01 -1,-1.16l-2.16 -2.4c-0.17,-0.16 -1.01,-0.89 -1.17,-1.04l-18.04 -11.05c-13.96,0.8 -9.39,-0.94 -20.9,-9.38 -0.13,-0.1 -0.91,-0.64 -1.04,-0.74l-60.31 -28.64c-0.17,-0.17 -1,-0.97 -1.17,-1.12 -11.51,-10.38 -9.92,5.98 -21.04,-3.68l-2.03 -2.43c-11.95,-12.24 -5.45,2.74 -18.03,-9.67 -6.83,-6.74 -11.93,-0.77 -19.21,-8.23 -0.17,-0.17 -0.87,-1.09 -1.04,-1.26l-17.89 -2.38c-0.42,-0.01 7.87,-0.45 -1.97,-0.15l-4.46 0.49c-0.11,-0.02 -0.93,-0.18 -1.04,-0.23 -0.11,-0.05 -0.87,-0.51 -0.99,-0.58 -0.13,-0.09 -0.84,-0.81 -0.98,-0.93 -15.06,-13.09 -0.52,-2.83 -15.93,-6.82l-5.3 -3.83c-0.18,-0.17 -0.96,-1.05 -1.13,-1.22 -0.17,-0.18 -0.87,-1.1 -1.04,-1.26 -5.9,-5.86 0.71,-2.71 -8.46,-2.43l-29.35 -3.78c-8.46,-8.67 0.25,-5.68 -10.75,-4.76l-18.03 -4.68c-6.57,-6.73 0.71,-3.72 -11.45,-3.82l-10.48 -0.07c-0.44,0 -1.86,0.21 -2.3,0.23 -0.12,0.01 -1.01,0.1 -1.13,0.1l-3.99 -0.22c-9.55,0.29 -9.3,-9.35 -19.07,-8.67 -0.44,0.03 -1.86,0.35 -2.3,0.37 -0.11,0.01 -0.93,0.03 -1.04,0.03l-12.45 -1.54c-0.15,-0.12 -0.96,-0.83 -1.12,-0.98 -0.17,-0.15 -1.01,-0.95 -1.18,-1.12 -0.17,-0.17 -0.95,-1.05 -1.12,-1.23 -0.17,-0.17 -0.88,-1.09 -1.04,-1.26l-11.41 -2.65c-0.11,0 -0.93,0.01 -1.04,0.01l-40.25 -1.14c-14.67,-12.75 -7.31,-7.42 -13.9,-7.04 -0.11,0 -0.93,0.03 -1.04,0.03l-10.42 -0.21c-0.1,0 -0.89,-0.09 -0.99,-0.1l-17.94 -3.56c-0.17,-0.18 -0.95,-1.05 -1.13,-1.22l-10.75 -3.39c-0.1,0.01 -0.93,0.03 -1.03,0.03l-4 -0.3c-0.44,0 -1.85,0.21 -2.3,0.23l-27.52 0.11c-10.52,0.02 -6.37,1.99 -13.58,-5.13 -7.78,-7.69 -13.59,-3.14 -21.23,-3.43l-5.3 0c-0.12,0.01 -1.01,0.1 -1.13,0.1 -0.11,0 -0.93,0 -1.04,0 -12.09,-0.19 9.14,-0.14 -2.96,-0.33 -0.11,0 -0.93,0 -1.04,0l-14.89 0.11c-0.09,-0.01 -0.88,-0.09 -0.99,-0.09l-5.49 0.65c-10.36,-1.19 0.66,2.86 -6.29,-4 -0.18,-0.18 -0.96,-1.05 -1.13,-1.23l-27.39 -3.66c-0.1,0 -0.88,-0.13 -0.98,-0.13 -0.1,-0.01 -0.89,-0.1 -0.99,-0.1l-6.49 0.23c-0.1,0 -0.88,-0.13 -0.98,-0.13 -0.1,-0.01 -0.89,-0.1 -0.99,-0.1l-2.16 0.1c-0.13,0 -1.05,0.13 -1.18,0.13 -0.12,0.01 -1.01,0.1 -1.12,0.1l-2.03 -0.1c-0.1,0 -0.89,-0.13 -0.99,-0.13 -0.09,-0.01 -0.88,-0.1 -0.99,-0.1l-3.33 0.23c-0.11,0.01 -1,0.1 -1.12,0.1l-2.03 -0.1c-0.1,0 -0.88,-0.13 -0.98,-0.13 -0.1,-0.01 -0.89,-0.1 -0.99,-0.1l-3.33 0.23c-0.12,0.01 -1.01,0.1 -1.13,0.1l-2.03 -0.1c-0.1,0 -0.88,-0.13 -0.98,-0.13 -0.1,-0.01 -0.89,-0.1 -0.99,-0.1l-6.49 0.23c-0.09,0 -0.88,-0.13 -0.98,-0.13 -0.1,-0.01 -0.89,-0.1 -0.99,-0.1l-38.27 -8.18c-0.11,0 -0.93,0.03 -1.04,0.03 -9.61,0.13 -1.55,-0.2 -1.97,-0.21l-8.46 0c-0.1,0 -0.89,-0.1 -0.99,-0.1 -0.11,0 -0.93,0 -1.04,0l-32.78 0c-0.1,0 -0.93,0 -1.04,0l-7.42 0c-0.1,0 -0.93,0 -1.03,0l-24.33 0c-0.1,0 -0.93,0 -1.04,0l-7.41 0c-0.11,0 -0.93,0 -1.04,0l-15.88 0c-0.1,0 -0.93,0 -1.04,0l-24.32 0c-0.11,0 -0.93,0 -1.04,0l-7.42 0c-0.1,0 -0.93,0 -1.04,0l-32.78 0c-0.1,0 -0.93,0 -1.03,0l-15.88 0c-0.11,0 -0.93,0 -1.04,0l-7.42 0c-0.1,0 -0.93,0 -1.04,0l-24.32 0c-0.1,0 -0.93,0 -1.04,0l-7.42 0c-0.1,0 -0.93,0 -1.03,0l-15.88 0c-0.1,0 -0.93,0 -1.04,0l-32.78 0c-0.1,0 -0.93,0 -1.04,0l-7.42 0c-0.1,0 -0.93,0 -1.03,0l-24.33 0c-0.1,0 -0.93,0 -1.04,0l-7.41 0c-0.11,0 -0.93,0 -1.04,0l-24.32 0c-0.11,0 -0.94,0 -1.04,0l-7.42 0c-0.11,0 -0.93,0 -1.04,0l-24.32 0c-0.11,0 -0.93,0 -1.04,0l-24.32 0c-0.11,0 -0.94,0 -1.04,0l-7.42 0c-0.11,0 -0.93,0 -1.04,0l-41.24 -0.45c-7.09,1.96 -7.43,9.35 -8.45,10.24 -0.33,0.29 -3.06,1 -4.46,0.61 -0.13,-0.04 -0.92,-0.56 -1.04,-0.61 -0.12,-0.04 -0.87,-0.57 -0.99,-0.61 -0.11,-0.05 -0.87,-0.47 -0.98,-0.51l-2.03 -0.37c-0.44,-0.03 -1.86,0.28 -2.3,0.3l-2.17 0.16c-12.94,0.03 -0.81,-0.18 -1.97,-0.22l-29.68 0.14c-0.12,0.01 -1.01,0.1 -1.13,0.1l-7.33 -0.1c-0.12,0.01 -1.01,0.1 -1.12,0.1l-19.92 -0.22c-21.25,-0.56 -6.87,-7.96 -20.06,6.91 -5.98,6.75 -5.05,1.96 -11.79,1.77l-8.45 0c-12.1,-0.19 9.14,-0.14 -2.96,-0.33 -0.11,0 -0.94,0 -1.04,0l-7.42 0c-0.11,0 -0.93,0 -1.04,0l-8.46 0c-0.44,0.01 -1.85,0.21 -2.3,0.23l-15.74 -2.28c-7.64,-0.61 -5.38,11.15 -15.79,10.63l-16.9 -0.13c-20.31,0.31 -17.3,-5.41 -25.36,5.42l-2.3 2.81c-7.82,6.63 -0.29,0.65 -6.16,0.36 -0.12,-0.01 -1.01,0.03 -1.13,0.03l-12.77 0.07c-0.1,-0.01 -0.88,-0.14 -0.98,-0.14l-2.03 -0.1c-0.44,0.01 -1.86,0.22 -2.3,0.24l-13.58 -1.25c-7.72,-3 -5.1,0.55 -9.49,6.44 -4.71,6.33 -11.35,2.88 -18.03,3.13l-9.63 0.27c-0.12,0 -1.01,0.12 -1.12,0.11 -9.6,-0.67 -7.45,-4.12 -12.45,3.14 -3.76,5.45 0.65,2.55 -4.46,5.35 -10.42,5.73 2.41,-0.21 -6.15,-0.35l-5.31 -0.06c-9.23,-0.44 -4.37,-3.63 -10.47,-0.28 -14,7.7 2.13,11.96 -15.88,8.55 -0.1,-0.02 -0.93,-0.06 -1.04,-0.07l-4.45 0.47c-10.76,0.06 -1.8,-0.21 -1.97,-0.21l-9.45 -1.11c-8.67,-3.36 -7.97,9.71 -20.25,9.72l-6.15 -0.28c-0.12,0 -1.01,0.08 -1.13,0.08 -6.62,0.01 -1.12,-5.73 -8.45,0.49 -14.15,12 5.84,11.52 -9.63,10.27l-26.48 -4.17c-3.87,2.07 -5.54,10.68 -13.49,10.43 -22.86,-0.72 16.03,4.36 -4.46,0.24 -0.1,-0.02 -0.88,-0.28 -0.99,-0.31l-1.97 -1.12c-0.12,-0.05 -0.91,-0.57 -1.04,-0.61 -8.71,-2.45 -3.56,1.9 -9.58,8.72 -8.02,9.1 -4.51,-9.8 -13.76,3.16 -6.31,8.86 9.66,-5.43 -4.32,6.43 -6.47,5.49 -2.63,0.6 -9.58,0.57l-17.95 -1.36c-8.84,7.9 7.28,-5.94 -5.11,8.12 -8.23,9.33 2.69,0.86 -8.46,-0.63 -16.17,-2.17 4.86,-2.08 -9.62,10.21 -5.86,4.96 -4.7,-0.7 -12.59,-0.16l-5.44 3.74c-14.11,18.98 -7.76,-8.58 -21.95,10.51 -5.32,7.17 -4.69,3.32 -8.46,3.21 -23.68,-0.75 -6.09,-2.61 -19.2,8.18 -0.14,0.12 -0.99,0.69 -1.13,0.76 -0.11,0.05 -0.93,0.19 -1.04,0.2 -24.18,2.5 0.02,-13.99 -11.41,2.77 -3.53,5.19 0.62,3.14 -4.45,5.49l-3.01 -0.69c-0.13,-0.05 -0.87,-0.69 -0.99,-0.75l-5.5 -0.24c-13.64,12.02 12.14,-15.5 -3.99,6.48 -7.15,9.74 3.22,2.72 -9.58,1.01 -15.48,-2.07 4.54,-1.32 -9.62,10.33l-4.13 0.08c-0.12,-0.05 -0.86,-0.69 -0.99,-0.75l-4.46 -1.03c-4.42,2.28 -1.17,7.53 -8.45,10.91 -18.83,8.74 10.2,-19.03 -9.5,-1.67 -13.64,12.01 12.14,-15.51 -3.99,6.47l-6.43 2.97c-0.12,-0.05 -0.86,-0.69 -0.99,-0.74 -9.6,-4.27 -4.38,0.8 -10.61,7.87 -9.65,10.94 -4.48,-15.28 -18.08,11.11 -2.63,5.09 -2.84,10.48 -8.46,9.68 -21.08,-3.01 14.23,6.92 -5.12,-3.61 -7.74,-4.21 -6.75,2.01 -9.49,4.88l-14.89 13.08c-0.12,-0.05 -0.86,-0.69 -0.99,-0.75l-8.45 3.92c-0.31,0.54 -2.01,4.02 -2.17,4.32l-3.33 6.61c-0.21,0.37 -0.78,1.52 -0.99,1.84 -3,4.56 3.93,2.39 -4.13,3.6 -29.59,4.48 20.55,-10.1 -9.62,-4.71 -7.37,1.32 -1.18,0.28 -4.12,3.39l-9.45 11.03c-10.01,14.12 -8.87,-4.84 -15.93,5.91 -24.28,37.02 7.71,-3.88 -15.93,15.91 -6,5.02 -6.07,20.21 -13.76,19.11 -15.82,-2.25 -2.29,-1.58 -4.12,-2.8 -6.58,-4.32 -6.38,-0.26 -10.48,4.12l-3.42 3.13c-0.15,0.15 -0.89,0.85 -1.04,1l-15.87 15.93c-0.15,0.14 -0.9,0.84 -1.04,0.99l-44.24 44.43c-0.15,0.16 -0.83,1.01 -0.99,1.18 -0.15,0.16 -0.88,0.96 -1.04,1.12 -0.16,0.16 -0.96,0.88 -1.12,1.04l-5.33 5.11c-5.39,5.42 -9.11,4.21 -8.34,14.05 0.06,0.8 0.44,3.35 0.6,4.12 0.76,3.58 0.14,2.46 1.91,5.67l-6.98 -0.77c-8.65,0.42 -5.01,8.22 -11.55,16.38 -5.23,6.56 10.44,-0.26 -3.01,1.77l-3.41 -0.95c-0.11,0.01 -0.94,0.02 -1.04,0.06l-28.38 36.91c-12.58,12.22 -1.21,6.23 -12.71,26.41l-7.77 5.29c-7.34,-0.4 2.12,-3.91 -5.46,-0.56 3.51,6.37 6.07,-4.46 1.78,9.5l-1.79 2.93c-0.16,0.21 -1.13,0.88 -1.31,1.06l-6.68 20.01c-8.38,-0.78 -4.42,-3.22 -8.36,3.16 -6.72,10.92 -11.39,14.94 -15.99,31.77l-10.44 20.18c-0.17,0.2 -1.03,0.87 -1.21,1.04 -0.16,0.16 -1.09,0.71 -1.25,0.86 -7.22,6.93 -0.18,-1.53 -4.03,11.73 -3.49,12.04 -12.76,20.21 -5.68,33.05l-12.68 0c1.71,3.1 7.36,5.02 -1.32,13.49 -0.18,0.18 -1.23,0.71 -1.41,0.88 -0.18,0.15 -1.15,0.67 -1.31,0.82l-0.19 18.63c-6.32,2.8 0.58,0.12 -5.43,0.04 -0.63,0 -3.02,-0.11 -3.64,-0.11l-3.6 0.07c6.5,11.8 -5.49,12.32 -6.64,20.04 -0.54,3.62 0.14,10.1 0.14,14.88 0.02,9.01 -1.36,-3.14 0.17,8.39 0.11,0.81 0.65,3.17 0.81,3.83l-11.39 3.59 2.59 13.66c-1.51,13.72 -5.81,5.67 -8.69,34.24 -2.01,19.93 -4.76,7 -7.44,10.42 -4,5.14 0.89,20.98 -2.51,29.39 -5.24,12.97 -6.06,2.31 -7.44,16.93 -0.74,7.82 2.12,10.97 -1.02,16.44 -4.44,7.73 -4.93,-0.68 -7.26,7.23 -0.2,0.67 -0.03,12.94 0.06,16.45l-2.29 19.91c-0.17,0.2 -1.09,0.87 -1.26,1.04 -0.18,0.17 -1.19,0.7 -1.36,0.86 -3.33,3.01 -1.7,-2.48 -3.61,4.01l2.18 66.14 -12.68 0 2.1 1641.24c0.01,68.68 0.92,136.51 -0.2,205.13 -0.09,5.42 -0.24,9.19 1.47,12.13 3.2,5.48 2.66,2.32 3.65,3.21l3.52 26.82c-0.01,7.97 -0.61,47.81 0.37,50.5l3.2 4.78c11.28,15.46 -3.85,40.19 8.45,52.32 6.34,6.24 3.55,-4.78 5.2,6.49 1.31,8.94 -1.77,18.2 -0.59,27.86 3.59,29.39 7.58,-10.6 9.07,16.29 0.47,8.41 -1.71,17.05 -0.61,25.98 3.42,27.99 6.96,-14.32 8.41,29.39 0.38,11.31 8.02,11.16 9.1,20.86 0.37,3.33 -0.51,8.38 -0.55,13.01 -0.05,5.1 -0.98,1.32 0.19,6.43l1.31 3.5c0.14,0.24 0.88,1.12 1.04,1.33 18.51,22.88 1.55,-26.18 5.92,18.36 0.76,7.72 -2.62,-1.6 1.51,5.66 3.15,5.56 2.66,2.34 3.64,3.23 5.3,4.8 3.26,-9.49 3.75,7.57 0.17,5.9 -1.43,10.19 1.05,14.57l6.72 5.92c4.01,8.13 -3.39,14.34 4.01,21.81 6.72,6.78 2.51,-4.91 4.88,6.5l30.27 69.43c7.05,10.84 -1.96,5.43 5.97,15.98 4.37,5.81 4.29,21.61 10.68,27.52 15.16,14.04 6.48,7.73 17.15,24.14l11.54 20.9c21.92,20.77 -6.48,7.15 19.7,28.42 8.14,6.61 1.54,-1.11 5.08,4.62 0.2,0.32 1.12,8.65 2.55,11.41 2.85,5.5 2.82,2.73 3.41,3.32 3.33,3.36 -0.68,-4.08 2.82,2.82 10.23,20.26 -6.75,1.5 23.45,31.57 20.84,20.75 13.09,13.68 20.99,29.94l39.38 38.99c7.28,7.28 -6.21,-6.19 2.96,3.33l22.41 22.03c7.28,7.28 -6.21,-6.18 2.96,3.33l13.95 13.58c0.14,0.15 0.84,0.9 0.98,1.05l17.53 14.21c4.81,2.76 3.78,1.57 8.2,4.23 14.97,9.09 0.6,2.79 16.99,16.89 11.65,10.01 5.65,11.87 30,21.34l49.66 32.33c8.51,8.43 -3.15,-2.57 3.28,2.66l61.65 35.58c0.43,0.26 1.42,1.02 1.84,1.27l49.39 24.04c0.3,0.16 1.3,0.77 1.63,0.94l56.08 23.67c0.23,0.13 1.03,0.79 1.29,0.92 0.31,0.16 1.26,0.83 1.62,0.99l41.62 12.35c10.72,2.47 -0.78,-1.16 5.12,1.72 12.28,5.98 -11,-4.02 4.01,2.82l41.81 12.26c9.67,2.07 -0.12,-2.15 5.44,1.67 0.18,0.12 0.84,0.85 0.97,0.99l1.32 2.73c0.08,0.14 0.22,1.1 0.49,1.58l135.26 33.82c12.42,0 24.5,-1.69 33.82,4.23 6.22,-2.78 5.15,-1.8 7.89,2.45 0.11,0.16 0.27,1.23 0.57,1.78 16.11,0 32.4,-1.92 47.79,2.94 0.7,0.22 2.04,0.72 2.94,1.29 7.2,-3.2 1.78,-2.45 5.13,-0.87 0.13,0.06 1.03,0.52 1.16,0.62l1.6 2.71c0.11,0.16 0.27,1.23 0.57,1.78 37.94,0 43.89,8.8 75.88,8.66 19.49,-0.09 47.09,-5.86 64.9,3.39 23.47,12.19 104.65,5.18 138.33,4.71 22.1,-0.31 28.88,-4.13 38.16,8.6zm116 -3001.35l0 0c118.56,0 215.56,96.98 215.56,215.58l0 1752.22c0,118.6 -97,215.58 -215.56,215.58l0 0c-118.56,0 -215.56,-96.98 -215.56,-215.58l0 -1752.22c0,-118.6 97,-215.58 215.56,-215.58z"/>
   <path class="fil1" d="M1561.87 3729.07l1.26 1.26c-0.08,-0.08 -1.68,-0.84 -1.26,-1.26zm1428.71 -625.63l1.26 1.26c-0.08,-0.08 -1.68,-0.84 -1.26,-1.26zm-1428.71 0l1.26 1.26c-0.08,-0.08 -1.68,-0.84 -1.26,-1.26zm-329.71 0l1.26 1.26c-0.08,-0.08 -1.68,-0.84 -1.26,-1.26zm1741.51 -16.91l1.26 1.27c-0.08,-0.09 -1.68,-0.85 -1.26,-1.27zm-8.46 0l1.26 1.27c-0.08,-0.09 -1.68,-0.85 -1.26,-1.27zm-1386.45 0l1.26 1.27c-0.08,-0.09 -1.68,-0.85 -1.26,-1.27zm-355.07 0l1.26 1.27c-0.08,-0.09 -1.68,-0.85 -1.26,-1.27zm-8.46 -8.45l1.27 1.26c-0.09,-0.08 -1.69,-0.84 -1.27,-1.26zm1741.51 -8.46l1.27 1.26c-0.09,-0.08 -1.69,-0.84 -1.27,-1.26zm-8.45 0l1.26 1.26c-0.08,-0.08 -1.69,-0.84 -1.26,-1.26zm-1352.64 0l1.27 1.26c-0.09,-0.08 -1.69,-0.84 -1.27,-1.26zm1344.18 -8.46l1.26 1.26c-0.08,-0.08 -1.68,-0.84 -1.26,-1.26zm-1741.51 0l1.26 1.26c-0.08,-0.08 -1.68,-0.84 -1.26,-1.26zm1733.05 -8.46l1.26 1.27c-0.08,-0.09 -1.68,-0.85 -1.26,-1.27zm-1741.51 0l1.27 1.27c-0.09,-0.09 -1.69,-0.85 -1.27,-1.27zm-1183.55 0c0.43,-0.42 1.26,0.67 1.27,1.27 0,0.24 0.53,0.53 0.51,0.51 -0.02,-0.02 -0.48,-0.48 -0.51,-0.51 -0.09,-0.09 -1.69,-0.85 -1.27,-1.27zm2916.61 -8.45l1.27 1.26c-0.09,-0.08 -1.69,-0.84 -1.27,-1.26zm-1741.5 0l1.26 1.26c-0.08,-0.08 -1.69,-0.84 -1.26,-1.26zm-1158.19 -8.46l1.78 1.78c-0.02,-0.02 -0.48,-0.49 -0.52,-0.52 -0.08,-0.08 -1.68,-0.84 -1.26,-1.26zm2882.79 -16.91l1.26 1.26c-0.08,-0.08 -1.68,-0.84 -1.26,-1.26zm-1276.55 0l1.27 1.26c-0.09,-0.08 -1.69,-0.84 -1.27,-1.26zm-464.96 0l1.26 1.26c-0.08,-0.08 -1.68,-0.84 -1.26,-1.26zm-1124.37 0c0.42,-0.42 1.26,0.67 1.26,1.27l-1.26 -1.27zm1115.92 -16.9l1.27 1.26c-0.09,-0.08 -1.69,-0.84 -1.27,-1.26zm-1099 0l1.26 1.26c-0.08,-0.08 -1.68,-0.84 -1.26,-1.26zm2832.07 -8.46l1.26 1.26c-0.08,-0.08 -1.69,-0.84 -1.26,-1.26zm-8.46 -8.46l1.26 1.26c-0.08,-0.08 -1.68,-0.84 -1.26,-1.26zm-1234.27 0l1.26 1.26c-0.08,-0.08 -1.68,-0.84 -1.26,-1.26zm-498.78 0l1.26 1.26c-0.08,-0.08 -1.68,-0.84 -1.26,-1.26zm1724.6 -16.9l1.26 1.26c-0.08,-0.08 -1.68,-0.84 -1.26,-1.26zm-2781.34 -16.91c0.42,-0.42 1.26,0.67 1.26,1.26l0 0c-0.08,-0.08 -1.69,-0.84 -1.26,-1.26zm2764.43 -8.46l1.26 1.26c-0.08,-0.08 -1.68,-0.84 -1.26,-1.26zm-1724.61 -16.9l1.27 1.26c-0.09,-0.08 -1.69,-0.84 -1.27,-1.26zm-1022.92 -8.46l1.26 1.26c-0.08,-0.08 -1.68,-0.84 -1.26,-1.26zm2730.62 -8.46l1.27 1.26c-0.09,-0.08 -1.69,-0.84 -1.27,-1.26zm-1716.14 -8.46l1.26 1.27c-0.08,-0.09 -1.69,-0.85 -1.26,-1.27zm-997.57 -16.9l1.27 1.26c-0.09,-0.08 -1.69,-0.84 -1.27,-1.26zm1555.53 -16.91l1.26 1.26c-0.08,-0.08 -1.68,-0.84 -1.26,-1.26zm1141.28 -8.45l1.26 1.26c-0.08,-0.09 -1.68,-0.84 -1.26,-1.26zm-8.46 -25.37l1.26 1.26c-0.08,-0.08 -1.68,-0.84 -1.26,-1.26zm-1699.24 0l1.26 1.26c-0.08,-0.08 -1.68,-0.84 -1.26,-1.26zm-972.2 0l1.26 1.26c-0.08,-0.08 -1.68,-0.84 -1.26,-1.26zm2662.98 -16.9l1.27 1.26c-0.09,-0.08 -1.69,-0.84 -1.27,-1.26zm-8.45 -33.82l1.26 1.26c-0.08,-0.08 -1.68,-0.84 -1.26,-1.26zm-1115.92 -16.91l1.26 1.26c-0.08,-0.08 -1.68,-0.84 -1.26,-1.26zm1107.46 -25.36l1.26 1.26c-0.08,-0.08 -1.68,-0.84 -1.26,-1.26zm-8.46 -42.27l1.27 1.26c-0.09,-0.08 -1.69,-0.84 -1.27,-1.26zm-2603.81 0l1.26 1.26c-0.08,-0.08 -1.68,-0.84 -1.26,-1.26zm2595.36 -42.27l1.26 1.26c-0.08,-0.08 -1.69,-0.84 -1.26,-1.26zm-16.91 -93l1.26 1.27c-0.08,-0.09 -1.68,-0.85 -1.26,-1.27zm-8.46 -50.72l1.27 1.26c-0.09,-0.08 -1.69,-0.84 -1.27,-1.26zm-2536.17 -16.91l1.26 1.26c-0.08,-0.08 -1.69,-0.84 -1.26,-1.26zm2527.72 -25.36l1.26 1.26c-0.08,-0.08 -1.68,-0.84 -1.26,-1.26zm-8.46 -42.27l1.26 1.26c-0.08,-0.08 -1.68,-0.84 -1.26,-1.26zm-2502.36 -16.91l1.26 1.27c-0.08,-0.09 -1.68,-0.84 -1.26,-1.27zm2493.91 -25.36l1.27 1.26c-0.09,-0.08 -1.69,-0.84 -1.27,-1.26zm-16.9 -92.99l1.26 1.26c-0.08,-0.08 -1.68,-0.84 -1.26,-1.26zm-2443.19 -67.64l1.26 1.27c-0.08,-0.09 -1.68,-0.84 -1.26,-1.27zm2426.27 -33.82l1.27 1.27c-0.09,-0.09 -1.69,-0.85 -1.27,-1.27zm-8.45 -33.82l1.26 1.26c-0.08,-0.08 -1.68,-0.84 -1.26,-1.26zm-8.46 -50.72l1.26 1.26c-0.08,-0.08 -1.68,-0.84 -1.26,-1.26zm-1286.73 -1106.9c0.23,-0.63 1.3,-1.08 2.44,-1.35l3.52 4.93c-0.31,0.55 -0.59,1.54 -0.65,1.78l-1.45 5.65c-7.5,56.42 7.5,17.28 8.76,39.85 0.57,10.25 -1.14,19 -0.67,30.03 1.22,28.39 7.94,-5.47 9.16,22.91 0.47,11.09 -1.18,19.67 -0.67,30.05 1.59,32.15 7.62,-7.99 9.09,18.45 0.71,12.69 -3.42,31.79 -0.38,44.94 0.09,0.36 0.41,1.56 0.53,1.88l3.09 3.99c6.44,6.35 5.39,-2.57 5.12,12.59 -0.14,8.07 -3.43,21.84 2.08,28.65 21.07,26.04 -1.63,-20.72 6.22,5.9 0.41,1.39 -0.06,23.69 -0.08,29.15 -0.05,9.34 -3.37,18.32 3.56,25.16 8.35,8.23 5.23,9.22 4.87,23.46 -0.77,31.02 9.08,6.53 8.45,46.5 -0.39,24.73 0.18,15.06 6.23,24.39 8.2,12.65 -2.71,40.51 3.52,55.91 4.61,11.42 4.09,-0.65 7.26,14.8 2.37,11.55 -4.23,33.3 2.21,43.23l3.92 4.42c3.7,5.72 -0.36,22.26 2.2,34.78 2.53,12.33 2.7,5.36 6.23,12.68 2.62,5.43 1.62,0.18 2.59,8.46l-0.34 21.15c-0.39,24.73 0.18,15.07 6.23,24.39 6.95,10.72 -2.11,32.8 2.73,45.39l7.95 31.67c-0.38,24.74 0.19,15.07 6.23,24.39 6.95,10.72 -2.11,32.81 2.74,45.39l3.09 3.99c8.77,8.64 5.05,9.27 4.87,25.56 -0.12,11.7 -1.38,16.39 4.93,25.03 5.32,7.3 3.87,-4.26 3.86,12.87l-0.58 42.61c0.17,34.06 7.63,-4.85 9.04,20.66 0.4,7.12 -1.63,22.64 -0.38,28.04 4.59,19.8 4,4.2 7.26,8.38 2.53,3.22 1.53,6.21 1.39,12.28 -0.55,24.74 -3.13,23.47 6.03,42.47 4.17,8.65 -0.4,21.1 2.66,29.37 0.12,0.33 0.66,1.41 0.82,1.72 0.17,0.33 0.94,1.29 1.14,1.6 0.22,0.32 1.12,1.2 1.35,1.52 7.78,10.49 0.7,13.42 -5.14,21.27 -20.91,28.13 7.21,-16.94 -12.92,8.13 -7.72,9.62 0.87,3.9 -9.49,4.96l-8.46 1.17c-6.15,-1.99 4.75,-1.34 -7.42,-0.92l-8.45 0.05c-7.13,0.18 -7.48,1.93 -14.62,-5.12l-2.3 -2.11c-0.44,-0.34 -1.6,-1.18 -2.03,-1.37l-33.82 0.04c-0.1,0 -0.88,-0.13 -0.98,-0.14l-15.93 0.14c-0.1,0 -0.88,-0.13 -0.98,-0.14l-7.48 0.14c-0.1,0 -0.88,-0.13 -0.98,-0.14l-7.47 0.14c-0.1,0 -0.89,-0.13 -0.99,-0.14l-15.93 0.14c-0.1,0 -0.88,-0.13 -0.98,-0.14l-7.48 0.14c-0.1,0 -0.88,-0.13 -0.98,-0.14l-7.47 0.14c-0.1,0 -0.89,-0.13 -0.98,-0.14l-3.16 0c-0.12,0.01 -1.05,0.13 -1.17,0.14l-3.16 0c-0.1,0 -0.88,-0.13 -0.98,-0.14l-21.24 1.67c-13.49,15.23 6.8,6.95 -19.07,7 -12.94,0.03 -0.8,-0.18 -1.97,-0.21 -0.1,0 -0.89,-0.1 -0.99,-0.1l-19.07 0.1c-0.12,0.01 -1.05,0.13 -1.17,0.14l-3.16 0c-0.1,-0.01 -0.88,-0.13 -0.98,-0.14l-7.47 0.14c-0.1,-0.01 -0.89,-0.13 -0.99,-0.14l-7.47 0.14c-0.1,-0.01 -0.88,-0.13 -0.98,-0.14l-3.16 0c-0.12,0.01 -1.05,0.13 -1.17,0.14l-3.16 0c-0.1,-0.01 -0.88,-0.13 -0.98,-0.14l-15.93 0.14c-0.1,-0.01 -0.89,-0.13 -0.98,-0.14l-5.45 0.24c-0.11,0 -0.93,0 -1.04,0l-2.96 -0.22c-0.11,0 -0.93,0.08 -1.04,0.08 -13.72,0.66 -1.34,-2.68 -13.9,-8.46l-19.52 -0.03c1.87,-3.38 1.14,-1.96 1.81,-5.47 2.44,-12.88 -2.47,-26.7 0.25,-39.97 1.02,-5 0.33,-2.23 3.6,-8.46 9.93,-18.9 0.15,-40.68 6.07,-52.23 0.16,-0.31 0.91,-1.27 1.11,-1.57l3.92 -4.42c4.85,-7.5 2.33,-18.37 2.24,-26.33 -0.09,-7.94 -1.62,-17.94 3.57,-23.05l4.96 -4.86c0.41,-1.4 0,-30.96 -0.09,-35.51 -0.5,-24.58 8.07,-13.91 8.81,-27.18 1.02,-18.43 -3.04,-32.28 4.58,-46.78 10.06,-19.13 -3.62,-35.48 9.74,-56.11l1.99 -37.08c0.13,-25.04 9.41,-2.7 8.86,-27.09 -1.18,-52.49 9.12,-21.55 8.54,-50.82 -1.63,-81.31 7.4,-40.15 8.56,-61.11 0.33,-5.94 -0.27,-10.02 -0.34,-17.19l3.57 -23.57c9.3,-12.74 1.1,-36.33 4.84,-54.62 1.03,-5 0.34,-2.23 3.61,-8.46 10.09,-19.21 0.17,-42.99 7.17,-53.8l3.92 -4.43c4.85,-7.49 2.33,-18.36 2.24,-26.32 -0.09,-7.94 -1.62,-17.94 3.57,-23.05 8.58,-8.45 2.83,-25.29 4.6,-40.5 0.98,-8.41 4.32,-6.75 7.6,-13.16l1.2 -18.39c-0.44,-28.18 -3.29,-21.8 6.12,-31.05 8.27,-8.13 -1.93,-58.25 2.76,-70.46l8.06 -8.86c0.19,-0.66 0.02,-12.93 -0.06,-16.44 -0.99,-41.85 9.06,13.08 8.42,-63.43 -0.2,-23.99 5.59,-18.28 8.61,-31.68 1.42,-6.33 0.46,-28.37 -2.24,-34.9 1.4,0.12 10.54,1.29 10.65,1.29 3.02,0.09 1.12,8.73 4.52,-0.64zm1269.83 1022.35l1.26 1.26c-0.08,-0.08 -1.69,-0.84 -1.26,-1.26zm-2358.65 0l1.26 1.26c-0.08,-0.08 -1.68,-0.84 -1.26,-1.26zm2341.73 -93l1.26 1.27c-0.08,-0.09 -1.68,-0.85 -1.26,-1.27zm-8.46 -42.27l1.27 1.27c-0.09,-0.09 -1.69,-0.84 -1.27,-1.27zm-8.45 -50.72l1.26 1.26c-0.08,-0.08 -1.68,-0.84 -1.26,-1.26zm-2291.01 0l1.26 1.26c-0.09,-0.08 -1.69,-0.84 -1.26,-1.26zm2274.1 -84.55l1.27 1.26c-0.09,-0.08 -1.69,-0.84 -1.27,-1.26zm-2257.2 0l1.26 1.26c-0.08,-0.08 -1.68,-0.84 -1.26,-1.26zm2240.29 -92.99l1.26 1.26c-0.08,-0.08 -1.68,-0.84 -1.26,-1.26zm-2223.39 -8.46l1.27 1.26c-0.09,-0.08 -1.69,-0.84 -1.27,-1.26zm2214.93 -33.82l1.27 1.26c-0.09,-0.08 -1.69,-0.84 -1.27,-1.26zm-8.46 -50.73l1.27 1.26c-0.09,-0.08 -1.69,-0.84 -1.27,-1.26zm-2189.56 -16.91l1.26 1.27c-0.08,-0.09 -1.68,-0.84 -1.26,-1.27zm2172.66 -76.08l1.26 1.26c-0.08,-0.09 -1.68,-0.84 -1.26,-1.26zm-2155.75 -8.46l1.27 1.26c-0.09,-0.08 -1.69,-0.84 -1.27,-1.26zm2147.3 -33.82l1.27 1.26c-0.09,-0.08 -1.69,-0.84 -1.27,-1.26zm-8.45 -42.27l1.26 1.26c-0.08,-0.08 -1.68,-0.84 -1.26,-1.26zm-8.46 -42.27l1.26 1.26c-0.08,-0.08 -1.68,-0.84 -1.26,-1.26zm-8.46 -42.27l1.27 1.26c-0.09,-0.08 -1.69,-0.84 -1.27,-1.26zm-16.9 -92.99l1.26 1.26c-0.08,-0.09 -1.68,-0.84 -1.26,-1.26zm-2054.3 -33.83l1.26 1.27c-0.09,-0.09 -1.69,-0.85 -1.26,-1.27zm2045.85 -16.9l1.26 1.26c-0.08,-0.08 -1.68,-0.84 -1.26,-1.26zm-8.46 -42.27l1.27 1.26c-0.09,-0.08 -1.69,-0.84 -1.27,-1.26zm-8.45 -42.27l1.26 1.26c-0.08,-0.08 -1.68,-0.84 -1.26,-1.26zm-2012.04 0l1.26 1.26c-0.08,-0.08 -1.68,-0.84 -1.26,-1.26zm2003.58 -50.73l1.26 1.27c-0.08,-0.09 -1.68,-0.84 -1.26,-1.27zm-16.91 -84.54l1.27 1.26c-0.09,-0.08 -1.69,-0.84 -1.27,-1.26zm-16.9 -93l1.26 1.26c-0.08,-0.08 -1.68,-0.84 -1.26,-1.26zm-8.46 -42.27l1.27 1.27c-0.09,-0.09 -1.69,-0.85 -1.27,-1.27zm-1910.59 -16.9l1.27 1.26c-0.09,-0.08 -1.69,-0.84 -1.27,-1.26zm1902.14 -33.82l1.26 1.26c-0.08,-0.08 -1.68,-0.84 -1.26,-1.26zm-16.91 -84.55l1.27 1.26c-0.09,-0.08 -1.69,-0.84 -1.27,-1.26zm-8.46 -50.73l1.27 1.26c-0.09,-0.08 -1.69,-0.84 -1.27,-1.26zm-1842.95 -16.9l1.26 1.26c-0.08,-0.08 -1.68,-0.84 -1.26,-1.26zm1834.51 -25.37l1.26 1.27c-0.08,-0.09 -1.68,-0.84 -1.26,-1.27zm-8.46 -42.26l1.26 1.26c-0.08,-0.08 -1.68,-0.84 -1.26,-1.26zm-8.46 -50.73l1.27 1.26c-0.09,-0.08 -1.69,-0.84 -1.27,-1.26zm-16.9 -84.55l1.26 1.26c-0.08,-0.08 -1.68,-0.84 -1.26,-1.26zm-1766.87 0l1.26 1.26c-0.08,-0.08 -1.68,-0.84 -1.26,-1.26zm1758.41 -50.72l1.27 1.26c-0.09,-0.08 -1.69,-0.84 -1.27,-1.26zm-1741.51 -33.83l1.27 1.27c-0.09,-0.09 -1.69,-0.84 -1.27,-1.27zm1733.05 -8.45l1.27 1.26c-0.09,-0.08 -1.69,-0.84 -1.27,-1.26zm-8.45 -42.27l1.26 1.26c-0.08,-0.08 -1.68,-0.84 -1.26,-1.26zm-8.46 -42.27l1.26 1.26c-0.08,-0.08 -1.68,-0.84 -1.26,-1.26zm-1699.24 -8.46l1.26 1.26c-0.08,-0.08 -1.68,-0.84 -1.26,-1.26zm1682.33 -84.55l1.26 1.27c-0.08,-0.09 -1.68,-0.85 -1.26,-1.27zm-1665.43 0l1.27 1.27c-0.09,-0.09 -1.69,-0.85 -1.27,-1.27zm1656.97 -50.72l1.26 1.26c-0.08,-0.08 -1.68,-0.84 -1.26,-1.26zm-8.46 -16.91l1.27 1.26c-0.09,-0.08 -1.69,-0.84 -1.27,-1.26zm-8.45 0l1.26 1.26c-0.09,-0.08 -1.69,-0.84 -1.26,-1.26zm-8.46 0l1.26 1.26c-0.08,-0.08 -1.68,-0.84 -1.26,-1.26zm-8.46 0l1.26 1.26c-0.08,-0.08 -1.68,-0.84 -1.26,-1.26zm-8.46 0l1.27 1.26c-0.09,-0.08 -1.69,-0.84 -1.27,-1.26zm-8.45 0l1.26 1.26c-0.08,-0.08 -1.68,-0.84 -1.26,-1.26zm-8.46 0l1.26 1.26c-0.08,-0.08 -1.68,-0.84 -1.26,-1.26zm-8.46 0l1.27 1.26c-0.09,-0.08 -1.69,-0.84 -1.27,-1.26zm-8.45 0l1.26 1.26c-0.09,-0.08 -1.69,-0.84 -1.26,-1.26zm-8.46 0l1.26 1.26c-0.08,-0.08 -1.68,-0.84 -1.26,-1.26zm-8.46 0l1.26 1.26c-0.08,-0.08 -1.68,-0.84 -1.26,-1.26zm-8.46 0l1.27 1.26c-0.09,-0.08 -1.69,-0.84 -1.27,-1.26zm-8.45 0l1.26 1.26c-0.08,-0.08 -1.68,-0.84 -1.26,-1.26zm-8.46 0l1.26 1.26c-0.08,-0.08 -1.68,-0.84 -1.26,-1.26zm-8.46 0l1.27 1.26c-0.09,-0.08 -1.69,-0.84 -1.27,-1.26zm-8.45 0l1.26 1.26c-0.09,-0.08 -1.69,-0.84 -1.26,-1.26zm-8.46 0l1.26 1.26c-0.08,-0.08 -1.68,-0.84 -1.26,-1.26zm-8.46 0l1.26 1.26c-0.08,-0.08 -1.68,-0.84 -1.26,-1.26zm-8.46 0l1.27 1.26c-0.09,-0.08 -1.69,-0.84 -1.27,-1.26zm-8.45 0l1.26 1.26c-0.08,-0.08 -1.68,-0.84 -1.26,-1.26zm-8.46 0l1.26 1.26c-0.08,-0.08 -1.68,-0.84 -1.26,-1.26zm-8.46 0l1.27 1.26c-0.09,-0.08 -1.69,-0.84 -1.27,-1.26zm-8.45 0l1.26 1.26c-0.08,-0.08 -1.69,-0.84 -1.26,-1.26zm-8.46 0l1.26 1.26c-0.08,-0.08 -1.68,-0.84 -1.26,-1.26zm-8.46 0l1.26 1.26c-0.08,-0.08 -1.68,-0.84 -1.26,-1.26zm-8.46 0l1.27 1.26c-0.09,-0.08 -1.69,-0.84 -1.27,-1.26zm-8.45 0l1.26 1.26c-0.08,-0.08 -1.68,-0.84 -1.26,-1.26zm-8.46 0l1.26 1.26c-0.08,-0.08 -1.68,-0.84 -1.26,-1.26zm-8.46 0l1.27 1.26c-0.09,-0.08 -1.69,-0.84 -1.27,-1.26zm-8.45 0l1.26 1.26c-0.08,-0.08 -1.69,-0.84 -1.26,-1.26zm-8.46 0l1.26 1.26c-0.08,-0.08 -1.68,-0.84 -1.26,-1.26zm-8.46 0l1.26 1.26c-0.08,-0.08 -1.68,-0.84 -1.26,-1.26zm-8.46 0l1.27 1.26c-0.09,-0.08 -1.69,-0.84 -1.27,-1.26zm-8.45 0l1.26 1.26c-0.08,-0.08 -1.68,-0.84 -1.26,-1.26zm-8.46 0l1.26 1.26c-0.08,-0.08 -1.68,-0.84 -1.26,-1.26zm-8.46 0l1.27 1.26c-0.09,-0.08 -1.69,-0.84 -1.27,-1.26zm-8.45 0l1.26 1.26c-0.08,-0.08 -1.69,-0.84 -1.26,-1.26zm-8.46 0l1.26 1.26c-0.08,-0.08 -1.68,-0.84 -1.26,-1.26zm-8.46 0l1.26 1.26c-0.08,-0.08 -1.68,-0.84 -1.26,-1.26zm-8.46 0l1.27 1.26c-0.09,-0.08 -1.69,-0.84 -1.27,-1.26zm-8.45 0l1.26 1.26c-0.08,-0.08 -1.68,-0.84 -1.26,-1.26zm-8.46 0l1.26 1.26c-0.08,-0.08 -1.68,-0.84 -1.26,-1.26zm-8.46 0l1.27 1.26c-0.09,-0.08 -1.69,-0.84 -1.27,-1.26zm-8.45 0l1.26 1.26c-0.08,-0.08 -1.69,-0.84 -1.26,-1.26zm-8.46 0l1.26 1.26c-0.08,-0.08 -1.68,-0.84 -1.26,-1.26zm-8.46 0l1.26 1.26c-0.08,-0.08 -1.68,-0.84 -1.26,-1.26zm-8.46 0l1.27 1.26c-0.09,-0.08 -1.69,-0.84 -1.27,-1.26zm-8.45 0l1.26 1.26c-0.08,-0.08 -1.68,-0.84 -1.26,-1.26zm-8.46 0l1.26 1.26c-0.08,-0.08 -1.68,-0.84 -1.26,-1.26zm-8.46 0l1.27 1.26c-0.09,-0.08 -1.69,-0.84 -1.27,-1.26zm-8.45 0l1.26 1.26c-0.08,-0.08 -1.69,-0.84 -1.26,-1.26zm-8.46 0l1.26 1.26c-0.08,-0.08 -1.68,-0.84 -1.26,-1.26zm-8.46 0l1.26 1.26c-0.08,-0.08 -1.68,-0.84 -1.26,-1.26zm-8.46 0l1.27 1.26c-0.09,-0.08 -1.69,-0.84 -1.27,-1.26zm-8.45 0l1.26 1.26c-0.08,-0.08 -1.68,-0.84 -1.26,-1.26zm-8.46 0l1.26 1.26c-0.08,-0.08 -1.68,-0.84 -1.26,-1.26zm-8.46 0l1.27 1.26c-0.09,-0.08 -1.69,-0.84 -1.27,-1.26zm-8.45 0l1.26 1.26c-0.08,-0.08 -1.69,-0.84 -1.26,-1.26zm-8.46 0l1.26 1.26c-0.08,-0.08 -1.68,-0.84 -1.26,-1.26zm-8.46 0l1.26 1.26c-0.08,-0.08 -1.68,-0.84 -1.26,-1.26zm-8.46 0l1.27 1.26c-0.09,-0.08 -1.69,-0.84 -1.27,-1.26zm-8.45 0l1.26 1.26c-0.08,-0.08 -1.68,-0.84 -1.26,-1.26zm-8.46 0l1.26 1.26c-0.08,-0.08 -1.68,-0.84 -1.26,-1.26zm-8.46 0l1.27 1.26c-0.09,-0.08 -1.69,-0.84 -1.27,-1.26zm-8.45 0l1.26 1.26c-0.08,-0.08 -1.69,-0.84 -1.26,-1.26zm-8.46 0l1.26 1.26c-0.08,-0.08 -1.68,-0.84 -1.26,-1.26zm-8.46 0l1.26 1.26c-0.08,-0.08 -1.68,-0.84 -1.26,-1.26zm-8.46 0l1.27 1.26c-0.09,-0.08 -1.69,-0.84 -1.27,-1.26zm-8.45 0l1.26 1.26c-0.08,-0.08 -1.68,-0.84 -1.26,-1.26zm-8.46 0l1.26 1.26c-0.08,-0.08 -1.68,-0.84 -1.26,-1.26zm-8.46 0l1.27 1.26c-0.09,-0.08 -1.69,-0.84 -1.27,-1.26zm-8.45 0l1.26 1.26c-0.08,-0.08 -1.68,-0.84 -1.26,-1.26zm-8.46 0l1.26 1.26c-0.08,-0.08 -1.68,-0.84 -1.26,-1.26zm-8.46 0l1.27 1.26c-0.09,-0.08 -1.69,-0.84 -1.27,-1.26zm-8.46 0l1.27 1.26c-0.09,-0.08 -1.69,-0.84 -1.27,-1.26zm-8.45 0l1.26 1.26c-0.08,-0.08 -1.68,-0.84 -1.26,-1.26zm-8.46 0l1.26 1.26c-0.08,-0.08 -1.68,-0.84 -1.26,-1.26zm-8.46 0l1.27 1.26c-0.09,-0.08 -1.69,-0.84 -1.27,-1.26zm-8.45 0l1.26 1.26c-0.08,-0.08 -1.68,-0.84 -1.26,-1.26zm-8.46 0l1.26 1.26c-0.08,-0.08 -1.68,-0.84 -1.26,-1.26zm-8.46 0l1.27 1.26c-0.09,-0.08 -1.69,-0.84 -1.27,-1.26zm-8.46 0l1.27 1.26c-0.09,-0.08 -1.69,-0.84 -1.27,-1.26zm-8.45 0l1.26 1.26c-0.08,-0.08 -1.68,-0.84 -1.26,-1.26zm-8.46 0l1.26 1.26c-0.08,-0.08 -1.68,-0.84 -1.26,-1.26zm-8.46 0l1.27 1.26c-0.09,-0.08 -1.69,-0.84 -1.27,-1.26zm-8.45 0l1.26 1.26c-0.08,-0.08 -1.68,-0.84 -1.26,-1.26zm-8.46 0l1.26 1.26c-0.08,-0.08 -1.68,-0.84 -1.26,-1.26zm-8.46 0l1.27 1.26c-0.09,-0.08 -1.69,-0.84 -1.27,-1.26zm-8.46 0l1.27 1.26c-0.09,-0.08 -1.69,-0.84 -1.27,-1.26zm-8.45 0l1.26 1.26c-0.08,-0.08 -1.68,-0.84 -1.26,-1.26zm-8.46 0l1.26 1.26c-0.08,-0.08 -1.68,-0.84 -1.26,-1.26zm-8.46 0l1.27 1.26c-0.09,-0.08 -1.69,-0.84 -1.27,-1.26zm-8.45 0l1.26 1.26c-0.08,-0.08 -1.68,-0.84 -1.26,-1.26zm-8.46 0l1.26 1.26c-0.08,-0.08 -1.68,-0.84 -1.26,-1.26zm-8.46 0l1.27 1.26c-0.09,-0.08 -1.69,-0.84 -1.27,-1.26zm-8.46 0l1.27 1.26c-0.09,-0.08 -1.69,-0.84 -1.27,-1.26zm-8.45 0l1.26 1.26c-0.08,-0.08 -1.68,-0.84 -1.26,-1.26zm-8.46 0l1.26 1.26c-0.08,-0.08 -1.68,-0.84 -1.26,-1.26zm-8.46 0l1.27 1.26c-0.09,-0.08 -1.69,-0.84 -1.27,-1.26zm-8.45 0l1.26 1.26c-0.08,-0.08 -1.68,-0.84 -1.26,-1.26zm-8.46 0l1.26 1.26c-0.08,-0.08 -1.68,-0.84 -1.26,-1.26zm-8.46 0l1.27 1.26c-0.09,-0.08 -1.69,-0.84 -1.27,-1.26zm-8.46 0l1.27 1.26c-0.09,-0.08 -1.69,-0.84 -1.27,-1.26zm-8.45 0l1.26 1.26c-0.08,-0.08 -1.68,-0.84 -1.26,-1.26zm-8.46 0l1.26 1.26c-0.08,-0.08 -1.68,-0.84 -1.26,-1.26zm-8.46 0l1.27 1.26c-0.09,-0.08 -1.69,-0.84 -1.27,-1.26zm-8.45 0l1.26 1.26c-0.08,-0.08 -1.68,-0.84 -1.26,-1.26zm-8.46 0l1.26 1.26c-0.08,-0.08 -1.68,-0.84 -1.26,-1.26zm-8.46 0l1.27 1.26c-0.09,-0.08 -1.69,-0.84 -1.27,-1.26zm-8.45 0l1.26 1.26c-0.09,-0.08 -1.69,-0.84 -1.26,-1.26zm-8.46 0l1.26 1.26c-0.08,-0.08 -1.68,-0.84 -1.26,-1.26zm-8.46 0l1.26 1.26c-0.08,-0.08 -1.68,-0.84 -1.26,-1.26zm-8.46 0l1.27 1.26c-0.09,-0.08 -1.69,-0.84 -1.27,-1.26zm-8.45 0l1.26 1.26c-0.08,-0.08 -1.68,-0.84 -1.26,-1.26zm-8.46 0l1.26 1.26c-0.08,-0.08 -1.68,-0.84 -1.26,-1.26zm-8.46 0l1.27 1.26c-0.09,-0.08 -1.69,-0.84 -1.27,-1.26zm-8.45 0l1.26 1.26c-0.09,-0.08 -1.69,-0.84 -1.26,-1.26zm-8.46 0l1.26 1.26c-0.08,-0.08 -1.68,-0.84 -1.26,-1.26zm-8.46 0l1.26 1.26c-0.08,-0.08 -1.68,-0.84 -1.26,-1.26zm-8.46 0l1.27 1.26c-0.09,-0.08 -1.69,-0.84 -1.27,-1.26zm-8.45 0l1.26 1.26c-0.08,-0.08 -1.68,-0.84 -1.26,-1.26zm-8.46 0l1.26 1.26c-0.08,-0.08 -1.68,-0.84 -1.26,-1.26zm-8.46 0l1.27 1.26c-0.09,-0.08 -1.69,-0.84 -1.27,-1.26zm-8.45 0l1.26 1.26c-0.09,-0.08 -1.69,-0.84 -1.26,-1.26zm-8.46 0l1.26 1.26c-0.08,-0.08 -1.68,-0.84 -1.26,-1.26zm-8.46 0l1.26 1.26c-0.08,-0.08 -1.68,-0.84 -1.26,-1.26zm-8.46 0l1.27 1.26c-0.09,-0.08 -1.69,-0.84 -1.27,-1.26zm-8.45 0l1.26 1.26c-0.08,-0.08 -1.68,-0.84 -1.26,-1.26zm-8.46 0l1.26 1.26c-0.08,-0.08 -1.68,-0.84 -1.26,-1.26zm-8.46 0l1.27 1.26c-0.09,-0.08 -1.69,-0.84 -1.27,-1.26zm-8.45 0l1.26 1.26c-0.08,-0.08 -1.69,-0.84 -1.26,-1.26zm-8.46 0l1.26 1.26c-0.08,-0.08 -1.68,-0.84 -1.26,-1.26zm-8.46 0l1.26 1.26c-0.08,-0.08 -1.68,-0.84 -1.26,-1.26zm-8.46 0l1.27 1.26c-0.09,-0.08 -1.69,-0.84 -1.27,-1.26zm-8.45 0l1.26 1.26c-0.08,-0.08 -1.68,-0.84 -1.26,-1.26zm-8.46 0l1.26 1.26c-0.08,-0.08 -1.68,-0.84 -1.26,-1.26zm-8.46 0l1.27 1.26c-0.09,-0.08 -1.69,-0.84 -1.27,-1.26zm-8.45 0l1.26 1.26c-0.08,-0.08 -1.69,-0.84 -1.26,-1.26zm-8.46 0l1.26 1.26c-0.08,-0.08 -1.68,-0.84 -1.26,-1.26zm-8.46 0l1.26 1.26c-0.08,-0.08 -1.68,-0.84 -1.26,-1.26zm-8.46 0l1.27 1.26c-0.09,-0.08 -1.69,-0.84 -1.27,-1.26zm-8.45 0l1.26 1.26c-0.08,-0.08 -1.68,-0.84 -1.26,-1.26zm-8.46 0l1.26 1.26c-0.08,-0.08 -1.68,-0.84 -1.26,-1.26zm-8.46 0l1.27 1.26c-0.09,-0.08 -1.69,-0.84 -1.27,-1.26zm-8.45 0l1.26 1.26c-0.08,-0.08 -1.69,-0.84 -1.26,-1.26zm-8.46 0l1.26 1.26c-0.08,-0.08 -1.68,-0.84 -1.26,-1.26zm-8.46 0l1.26 1.26c-0.08,-0.08 -1.68,-0.84 -1.26,-1.26zm-8.46 0l1.27 1.26c-0.09,-0.08 -1.69,-0.84 -1.27,-1.26zm-8.45 0l1.26 1.26c-0.08,-0.08 -1.68,-0.84 -1.26,-1.26zm-8.46 0l1.26 1.26c-0.08,-0.08 -1.68,-0.84 -1.26,-1.26zm-8.46 0l1.27 1.26c-0.09,-0.08 -1.69,-0.84 -1.27,-1.26zm-8.45 0l1.26 1.26c-0.08,-0.08 -1.69,-0.84 -1.26,-1.26zm-8.46 0l1.26 1.26c-0.08,-0.08 -1.68,-0.84 -1.26,-1.26zm-8.46 0l1.26 1.26c-0.08,-0.08 -1.68,-0.84 -1.26,-1.26zm-8.46 0l1.27 1.26c-0.09,-0.08 -1.69,-0.84 -1.27,-1.26zm-8.45 0l1.26 1.26c-0.08,-0.08 -1.68,-0.84 -1.26,-1.26zm-8.46 0l1.26 1.26c-0.08,-0.08 -1.68,-0.84 -1.26,-1.26zm-8.46 0l1.27 1.26c-0.09,-0.08 -1.69,-0.84 -1.27,-1.26zm-8.45 0l1.26 1.26c-0.08,-0.08 -1.69,-0.84 -1.26,-1.26zm-8.46 0l1.26 1.26c-0.08,-0.08 -1.68,-0.84 -1.26,-1.26zm-8.46 0l1.26 1.26c-0.08,-0.08 -1.68,-0.84 -1.26,-1.26zm-8.46 0l1.27 1.26c-0.09,-0.08 -1.69,-0.84 -1.27,-1.26zm-8.45 0l1.26 1.26c-0.08,-0.08 -1.68,-0.84 -1.26,-1.26zm-8.46 0l1.26 1.26c-0.08,-0.08 -1.68,-0.84 -1.26,-1.26zm-8.46 0l1.27 1.26c-0.09,-0.08 -1.69,-0.84 -1.27,-1.26zm-8.45 0l1.26 1.26c-0.08,-0.08 -1.69,-0.84 -1.26,-1.26zm-8.46 0l1.26 1.26c-0.08,-0.08 -1.68,-0.84 -1.26,-1.26zm-8.46 0l1.26 1.26c-0.08,-0.08 -1.68,-0.84 -1.26,-1.26zm-8.46 0l1.27 1.26c-0.09,-0.08 -1.69,-0.84 -1.27,-1.26zm-8.45 0l1.26 1.26c-0.08,-0.08 -1.68,-0.84 -1.26,-1.26zm-8.46 0l1.26 1.26c-0.08,-0.08 -1.68,-0.84 -1.26,-1.26zm-8.46 0l1.27 1.26c-0.09,-0.08 -1.69,-0.84 -1.27,-1.26zm-8.45 0l1.26 1.26c-0.08,-0.08 -1.69,-0.84 -1.26,-1.26zm-8.46 0l1.26 1.26c-0.08,-0.08 -1.68,-0.84 -1.26,-1.26zm-8.46 0l1.26 1.26c-0.08,-0.08 -1.68,-0.84 -1.26,-1.26zm-8.46 0l1.27 1.26c-0.09,-0.08 -1.69,-0.84 -1.27,-1.26zm-8.45 0l1.26 1.26c-0.08,-0.08 -1.68,-0.84 -1.26,-1.26zm-8.46 0l1.26 1.26c-0.08,-0.08 -1.68,-0.84 -1.26,-1.26zm-8.46 0l1.27 1.26c-0.09,-0.08 -1.69,-0.84 -1.27,-1.26zm-8.45 0l1.26 1.26c-0.08,-0.08 -1.68,-0.84 -1.26,-1.26zm-8.46 0l1.26 1.26c-0.08,-0.08 -1.68,-0.84 -1.26,-1.26zm-8.46 0l1.27 1.26c-0.09,-0.08 -1.69,-0.84 -1.27,-1.26zm-8.46 0l1.27 1.26c-0.09,-0.08 -1.69,-0.84 -1.27,-1.26zm-8.45 0l1.26 1.26c-0.08,-0.08 -1.68,-0.84 -1.26,-1.26zm-8.46 0l1.26 1.26c-0.08,-0.08 -1.68,-0.84 -1.26,-1.26zm-8.46 0l1.27 1.26c-0.09,-0.08 -1.69,-0.84 -1.27,-1.26zm-8.45 0l1.26 1.26c-0.08,-0.08 -1.68,-0.84 -1.26,-1.26zm-8.46 0l1.26 1.26c-0.08,-0.08 -1.68,-0.84 -1.26,-1.26zm-8.46 0l1.27 1.26c-0.09,-0.08 -1.69,-0.84 -1.27,-1.26zm-8.46 0l1.27 1.26c-0.09,-0.08 -1.69,-0.84 -1.27,-1.26zm-8.45 0l1.26 1.26c-0.08,-0.08 -1.68,-0.84 -1.26,-1.26zm-8.46 0l1.26 1.26c-0.08,-0.08 -1.68,-0.84 -1.26,-1.26zm-8.46 0l1.27 1.26c-0.09,-0.08 -1.69,-0.84 -1.27,-1.26zm-8.45 0l1.26 1.26c-0.08,-0.08 -1.68,-0.84 -1.26,-1.26zm-9.17 -0.7c-0.43,1.84 5.19,8.64 -2.02,15.07 -6.19,5.51 -1.68,28.54 -3.31,41.98 -2.59,21.06 -8.94,0.38 -9.03,18.35 -0.03,6.75 0.23,8.36 0.4,15.13 0.57,22.75 0.04,7.13 -7.33,25.36 -3.65,9.06 0.7,19.54 -1.19,27.76 -0.09,0.36 -0.41,1.56 -0.53,1.88l-5.7 5.64c-5.36,5.27 -1.46,28.62 -1.97,39 -1.02,20.54 -9.81,-8.05 -8.65,44.15l-3.67 16.65c-19.99,19.69 6.18,-17.2 -4.44,3.54 -4.45,8.7 2.4,28.25 -2.76,38.93 -3.53,7.32 -3.71,0.34 -6.22,12.68 -2.16,10.55 2.32,23.78 -4.85,30.25l-3.58 16.13c0.2,9.98 0.09,17.79 0.26,27.59l-5.12 19.02c-6.65,12.65 2.23,31.85 -4.8,43.95 -5.28,9.08 -5.87,-2.32 -7.5,8.86 -1.31,8.94 1.77,18.19 0.59,27.86 -3.54,29 -9.6,-21.05 -8.54,44.16 0.09,5.42 0.25,9.18 -1.47,12.12 -4.47,7.69 -4.93,-0.66 -7.26,7.23 -0.94,3.18 0.65,21.45 0.38,27.04 -0.99,20.1 -6.95,7.11 -9.07,25.36 -1.12,9.59 1.79,17.98 0.59,27.82 -3.58,29.32 -8.87,-11.88 -9.02,18.34 -0.27,51.67 -8.94,19.35 -8.32,46.65 1.46,65.24 -8.44,18.46 -8.6,46.36 -0.06,11.66 4.01,25.36 -0.19,36.31l-1.83 2.95c-21.07,26.04 1.62,-20.71 -6.23,5.91 -0.96,3.25 0.68,21.34 0.38,27.32 -1.56,31.7 -9.35,-18.31 -8.74,46.22 0.05,5.86 0.52,8.14 0.29,12.97 -0.85,17.05 -9.53,0.08 -8.78,31.4 0.75,31.79 -9.2,11.08 -8.33,46.57 0.74,29.91 -8.97,4.25 -8.55,44.33l-0.5 19.06c-5.07,13.22 -8.22,-1.92 -8.01,27.43 0.06,8.62 3.33,19.33 -2.27,26.26 -10.09,12.46 -6.67,-12.14 -6.17,20.2 0.17,11.14 1.25,26.84 -3.54,31.56 -8.62,8.49 0.2,6 -4.84,27.95l-6.23 7.53c-9.36,9.2 1.73,41.88 -2.76,53.54l-4.44 4.84c-9.15,8.26 0.77,25 -4,37.43 -2.22,5.77 2.77,-1.78 -3.09,3.99 -11.26,11.08 3.16,28.44 -7.2,41.23 -10.08,12.47 -6.66,-12.13 -6.17,20.21 0.56,36.74 -8.98,34.25 -8.67,52.9 1.14,67.88 -7.17,21.16 -8.56,46.22 -1,18.08 0.87,26.52 -5.84,40.44 -4.55,9.45 -0.75,17.39 -2,27.82 -2.78,23.18 -8.17,-12.5 -8.48,46.36 -0.03,5.07 0.97,1.34 -0.21,6.42 -0.08,0.36 -0.4,1.56 -0.53,1.88 -7.04,18.33 -8.52,-11.51 -8,23.15 0.07,4.04 0.28,25.67 -0.45,27.58 -2.22,5.77 2.77,-1.78 -3.09,3.99 -8,7.88 0.96,26.2 -9.81,46.69l-8.46 55.62c-9.26,8.35 0.56,29.16 -7.09,43.72 -1.18,2.24 -1.37,0.67 -3.65,6.34 -2.02,4.98 -1.58,9.13 -1.33,14.83 1.37,32.08 -8.77,6.15 -8.36,46.48 0.37,35.29 -9.31,11.82 -8.45,46.51 0.86,34.65 -8.88,5.52 -8.46,46.49 0.06,5.7 0.5,8.28 0.29,12.68 -1.01,20.6 -8.65,5.94 -8.52,40.36l-2.55 11.25c-7.65,9.45 -6.9,-3.5 -6.03,35.11 0.56,25.02 -4.55,15.6 -7.33,19.16 -7.28,9.33 2.67,41.28 -1.73,52.69 -2.21,5.77 2.77,-1.78 -3.08,3.99 -12.62,12.44 4.51,-8.14 -3.65,2.51 -4.84,6.32 2.37,15.75 -4.8,22.85 -9.07,8.99 -4.88,3.9 -4.89,34.02 0,4.93 0.77,24.62 0.05,27.75 -0.09,0.36 -0.41,1.57 -0.53,1.89l-5.7 5.64c-5.43,5.33 -1.29,33.8 -7.2,45.04 -7.07,13.47 3.44,35.92 -7.09,46.31 -8.35,8.22 -5.11,4.65 -4.94,21.31 0.11,10.28 1.18,22.79 -3.51,31.73l-4.98 21.16c1.13,26.39 -4.06,17.39 -7.12,21.31 -8.56,10.96 6.05,37.53 -4.8,48.22 -9.02,8.88 -4.71,4.04 -4.65,21.51l-0.72 8.32c-5.6,14.61 -7.97,-9.13 -7.98,38.01 0,62.49 -8.6,15.98 -8.74,44.05 -0.28,54.57 -8.8,11.53 -7.97,59.63 0.5,28.89 -9.26,-4.04 -8.68,33.65 0.06,4.04 0.27,25.67 -0.46,27.58 -2.22,5.77 2.77,-1.78 -3.09,3.99 -12.4,12.21 4.37,-7.79 -3.65,2.51 -5.57,7.14 0.63,30.08 -2.51,37.84l-6.96 27.82c-3.21,31.93 -6.13,-20.04 -8.38,31.36 -0.56,12.7 -4.97,10.13 -8.11,21.26 -2.71,9.57 0.7,9.34 -5.55,15.36 -5.24,5.04 -1.56,-2.53 -3.6,7.84 -1.81,9.14 3.2,-2.8 -1.33,5.64 -7.16,13.35 -7.41,-3.26 -7.35,12.99l-0.99 21.03c-3.06,5.29 -2.92,2.55 -3.63,3.22l-24.04 49.81c-6.47,7.01 -3.31,11.38 -9.78,17.8l-9.39 18c-0.16,0.14 -0.95,0.77 -1.1,0.91l-9.51 9.38c-0.15,0.16 -0.84,0.97 -0.99,1.12 -0.16,0.16 -0.86,1 -1.03,1.16l-6.7 7.46c-3.32,12.06 -3.59,17.53 -20.24,28.73l-9.39 16.66c-1.14,4.21 -11.06,-5.44 -12.87,6.92 -1.56,10.6 8.1,3.68 -3.4,10.81 -11.06,6.86 -6.87,1.1 -11.38,-1.39l-2.12 680.59c124.82,0 1217.08,7.07 1240.62,-4.22 5.67,4.07 -0.86,7.19 1.76,-0.43l0.33 -21.76c-0.11,-94.11 4.03,-589.88 -0.42,-599.04l-19.55 -24.03c-15.11,-10.5 -4.58,5.92 -13.43,-8.87 -0.2,-0.34 -0.6,-1.51 -0.79,-1.88l-26.56 -36.32c-7.69,-16.68 -11.85,-15.43 -17.94,-27.09l-10.72 -23.72c-0.16,-0.17 -1.07,-0.84 -1.22,-1.04l-11 -34.7c-0.51,-19.64 -14.28,-42.77 -16.76,-54.95l0.09 -40.19c0.37,-40.22 -8.47,-2.66 -8.5,-54.92l0.03 -23.22c0.11,-0.8 0.65,-3.17 0.81,-3.83l508.54 -3.6c76.27,-0.22 55.94,2.01 57.27,83.61 0.02,1.13 -0.54,10.13 -0.68,10.49 -4.21,10.97 -8.49,2.1 -7.99,23.15 0.53,22.09 -8.73,24.69 -8.53,42.44 0.16,15.53 -8.3,12.61 -8.59,22.91 -0.13,4.2 1.13,6.74 0.24,11.01 -1.99,9.47 -6.84,4.99 -8.45,12.71l-14.61 28.7c-3.24,3.53 -0.58,9.59 -5.72,15.19l-12.05 17.39c-0.24,0.47 -0.76,1.68 -0.99,2.11l-12.78 14.05c-4.82,4.38 -7.53,18.93 -18.6,29.87l-28.7 27.68c-4.82,41.14 2.72,501.25 0.37,604.55 -0.18,7.86 -2.77,14.77 3.52,21.12 7.45,7.51 10.82,5.39 15.54,-3.16 138.9,0 1401.06,7.02 1424.49,-4.22 6.86,4.92 2.3,-3.19 2.2,-11.35 -0.98,-80.76 3.98,-605.13 -1,-610.93l-31.88 -24.15c-4.41,-24.68 -0.95,5.36 -31.96,-26.65 -5.25,-5.42 -6.51,-5.94 -10.19,-12.81 -5.41,-10.11 2.29,4.49 -2.73,-6.44 -3.21,-7.01 -0.94,-2.16 -3.21,-6.57l-4.85 -7.92c-11.06,-10.21 -9.95,-5.95 -17.01,-19.16 -6.08,-11.37 -14.18,-15.21 -15.62,-25.7 -1.3,-9.46 1.39,-4.06 -5.32,-8.38l-12.25 -14.49c-0.23,-0.49 -0.68,-1.67 -0.91,-2.17l-26.4 -52.9c-8.28,-15.66 -3.21,-23.36 -10.71,-38.04 -3.54,-6.96 -1.46,-1.32 -2.91,-6.34l-9.16 -31.75c-1.78,-8.55 -8.34,-5.72 -8.62,-16.57l-3.34 -19.32c-5.53,-10.53 -3.17,-19 -4.61,-31.7 -2.09,-18.31 -8.18,-5.24 -9.07,-25.36 -0.36,-8.26 2.06,-15.83 -0.94,-23.25 -7.22,-17.87 -8.25,-2.92 -7.28,-25.36l-6.08 -25.37c-7.82,-16.2 2.08,-30.95 -7.2,-48.61 -5.32,-10.12 -3.1,3.05 -3.86,-12.68l0.61 -25.4c-1.32,-9.03 -8.53,-5.53 -9.07,-16.58 -0.59,-12.08 1.47,-27.27 -3.23,-36.21l-4.71 -25.37c0.2,-6.1 0.22,-8.57 -1.45,-12.68l-6.73 -12.68c-4.59,-15.05 1.98,-20.21 -6.63,-38.05 -1.63,-3.36 -1.76,-3.43 -2.35,-6.34l0.37 -19.02c-0.69,-15.74 1.45,-2.58 -3.86,-12.68 -7,-13.33 -3.54,1.58 -5.2,-12.68 -1.58,-13.63 2.03,-28.01 -3.24,-38.05 -6.16,-11.71 -2.74,0.37 -4.97,-10.56 -0.43,-2.11 -0.07,-8.72 0.03,-12.69 0.23,-9.31 1.05,-17.6 -4.87,-23.44l-3.61 -5.86c-0.36,-1.59 0,-9.61 0.14,-12.94 0.97,-22.47 -0.05,-7.49 -7.28,-25.38 -3.24,-8.04 -0.3,-37.41 -0.93,-48.89 -1.49,-26.76 -6.07,12.94 -9.02,-16.29 -3.14,-31.18 -8.55,-19.87 -8.25,-48.95l-8.62 -42.16c0.95,-30.73 -9.05,-17.82 -8.26,-50.89 0.34,-14.49 2.83,-11.54 -4.9,-19.16 -6.98,-6.87 -3.32,-13.63 -3.29,-23.05 0.05,-12.33 -6.1,-12.31 -8.78,-25.37 -1.93,-9.44 2.5,-26.82 -1.19,-35.92 -13.98,-34.61 -0.25,-23.54 -13.37,-50.73 -1.62,-3.35 -1.76,-3.46 -2.35,-6.34 -5.35,-26.14 4.45,-35.42 -4.84,-44.58 -6.45,-6.35 -1.14,-24.31 -9.71,-42.08l-2.56 -12.68c-0.27,-54.06 -8.1,-9.25 -7.93,-52.84 0.05,-12.33 -6.1,-12.31 -8.78,-25.36 -0.43,-2.1 -0.07,-8.74 0.03,-12.69l-8.35 -50.72c0.96,-21.99 -8.72,-20.3 -8.51,-50.74 0.05,-7.14 1.24,-17.7 -1.28,-20.93 -2.62,-3.35 -8.33,5.63 -7.27,-19.16 0.17,-4.2 0.6,-10.47 0.13,-12.74 -3.99,-19.64 -9.12,-12.94 -8.48,-38.05 0.13,-5.05 0.76,-6.31 0.26,-10.56 -2.26,-19.38 -8.62,-3.9 -8.49,-38.05 0.02,-5.62 0.85,-1.19 -0.2,-6.34 -2,-9.8 -6.1,-6.85 -8.58,-19.02 -1.28,-6.25 1.74,-18.34 -0.4,-25.36l-8.06 -16.91c-1.05,-5.15 -0.22,-0.72 -0.2,-6.34 0.02,-5.28 0.77,-8.24 0.58,-12.68 -0.86,-19.41 -9.46,-10.28 -8.58,-38.05 0.36,-11.34 -5.71,-17.25 -8.19,-25.36 -4.44,-14.57 1.59,-31.15 -5.36,-44.38 -4.87,-9.27 -3.52,-21.41 -3.33,-32 0.37,-20.65 -3.09,-3.23 -8.21,-16.57 -0.74,-1.93 -0.43,-19.59 -0.33,-23.29 0.57,-22.74 0.03,-7.13 -7.34,-25.36 -3.52,-8.75 0.2,-15.23 -0.96,-25.37 -1.72,-15.1 -8.59,-11.94 -8.49,-38.04 0.02,-5.62 0.85,-1.2 -0.2,-6.34 -2,-9.8 -6.09,-6.87 -8.58,-19.03 -0.45,-2.21 -0.06,-8.58 0.03,-12.68 1,-48.62 -7.86,-22.24 -8.74,-41.98 -1.67,-37.68 -8.86,-25.6 -8.27,-48.9 0.93,-37.28 -9.7,-11.65 -8.4,-42.21 0.67,-15.79 -6.08,-20.19 -8.45,-31.76l0.13 -31.7c-2.68,-13.05 -8.83,-13.04 -8.78,-25.36 0.02,-5.28 0.77,-8.25 0.57,-12.69l-8.76 -48.66c0.54,-35.5 -8.36,-1.69 -8.21,-42.21 0.04,-9.53 -6.18,-16.49 -8.25,-23.25 -7.71,-25.22 6.1,-26.95 -5.37,-38.24 -4.91,-4.84 -3.5,-19.69 -3.32,-29.39 0.41,-23.24 -0.11,-5.15 -7.42,-23.25 -3.53,-8.75 0.2,-15.22 -0.96,-25.36 -2.09,-18.31 -8.18,-5.24 -9.07,-25.37 -2,-45.32 -8.85,-18.23 -8.18,-50.72 0.11,-5.5 1.13,-20 0.33,-25.41 -1.65,-11.27 1.14,-0.25 -5.2,-6.49 -8.99,-8.86 -0.72,-25.73 -7.09,-37.85 -6.13,-11.66 -0.34,-36.72 -6.16,-44.19 -2.77,-3.53 -7.95,5.82 -7.33,-19.16 0.74,-30 -9.38,-28.43 -8.41,-50.79 1.44,-33.12 -5.98,-3.53 -8.06,-50.72 -0.89,-20.13 -6.98,-7.05 -9.07,-25.37 -2.42,-21.13 1.22,-15.83 -6.91,-35.92 -1.67,-4.14 -1.58,-6.53 -1.47,-12.68 0.6,-33.6 -8.79,-31.64 -8.46,-50.73l-3.32 -26.82c-10.22,-9.23 -1.36,-33.81 -8.53,-47.2 -3.53,-6.61 -6.81,-10.52 -2.73,-17.93l-3.52 -4.93c-158,0.27 -1626.09,-2.58 -1649.92,4.23z"/>
   <path class="fil2" d="M5349.23 3729.07l1.26 1.26c-0.08,-0.08 -1.68,-0.84 -1.26,-1.26zm-8.46 0c0.42,-0.42 1.26,0.67 1.26,1.27l0.01 -0.01c-0.09,-0.08 -1.69,-0.84 -1.27,-1.26zm-42.26 0l1.26 1.26c-0.08,-0.08 -1.68,-0.84 -1.26,-1.26zm-574.87 0l1.27 1.26c-0.09,-0.08 -1.69,-0.84 -1.27,-1.26zm-338.15 0c0.42,-0.42 1.26,0.67 1.26,1.27l-1.26 -1.27zm-371.98 0l1.27 1.26c-0.09,-0.08 -1.69,-0.84 -1.27,-1.26zm-84.54 0l1.27 1.26c-0.09,-0.08 -1.69,-0.84 -1.27,-1.26zm1428.72 -625.63l1.26 1.26c-0.08,-0.08 -1.68,-0.84 -1.26,-1.26zm-1428.72 0l1.27 1.26c-0.09,-0.08 -1.69,-0.84 -1.27,-1.26zm16.91 -16.91l1.26 1.27c-0.08,-0.09 -1.68,-0.85 -1.26,-1.27zm1394.89 -8.45c0.42,-0.42 1.26,0.66 1.26,1.26l-1.26 -1.26zm-8.45 -8.46l1.26 1.26c-0.08,-0.08 -1.68,-0.84 -1.26,-1.26zm-1369.54 0l1.26 1.26c-0.08,-0.08 -1.68,-0.84 -1.26,-1.26zm1361.09 -8.46l1.26 1.26c-0.08,-0.08 -1.68,-0.84 -1.26,-1.26zm-8.46 -8.46c0.42,-0.42 1.26,0.67 1.26,1.27l-1.26 -1.27zm-1335.71 0l1.26 1.27c-0.09,-0.09 -1.69,-0.85 -1.26,-1.27zm1327.26 -16.9c0.43,-0.42 1.26,0.66 1.27,1.26l0 0c-0.09,-0.08 -1.69,-0.84 -1.27,-1.26zm-16.9 -25.37c0.42,-0.42 1.26,0.67 1.26,1.27l0 0c-0.08,-0.09 -1.68,-0.84 -1.26,-1.27zm-8.46 -8.45l1.27 1.26c-0.09,-0.08 -1.69,-0.84 -1.27,-1.26zm-1268.09 0l1.27 1.26c-0.09,-0.08 -1.69,-0.84 -1.27,-1.26zm1259.64 -16.91l1.26 1.26c-0.08,-0.08 -1.68,-0.84 -1.26,-1.26zm-8.46 -16.9c0.42,-0.43 1.26,0.66 1.26,1.26l0 0c-0.08,-0.08 -1.68,-0.84 -1.26,-1.26zm-1234.27 0l1.26 1.26c-0.08,-0.08 -1.68,-0.84 -1.26,-1.26zm1225.82 -16.91l1.27 1.26c-0.09,-0.08 -1.69,-0.84 -1.27,-1.26zm-8.46 -33.82c0.43,-0.42 1.26,0.67 1.27,1.26l0 0c-0.09,-0.08 -1.69,-0.84 -1.27,-1.26zm-8.45 -33.82c0.42,-0.42 1.26,0.66 1.26,1.26l0 0c-0.08,-0.08 -1.68,-0.84 -1.26,-1.26zm-1175.1 -50.73l1.26 1.26c-0.08,-0.08 -1.68,-0.84 -1.26,-1.26zm1166.64 -135.27l1.26 1.26c-0.08,-0.08 -1.68,-0.84 -1.26,-1.26zm-1166.64 -1758.54l1.26 1.26c-0.08,-0.08 -1.68,-0.84 -1.26,-1.26zm-8.46 -59.19l1.26 1.26c-0.08,-0.08 -1.68,-0.84 -1.26,-1.26zm-8.46 -25.36l1.27 1.26c-0.09,-0.08 -1.69,-0.84 -1.27,-1.26zm-8.45 -25.36l1.26 1.26c-0.09,-0.08 -1.69,-0.84 -1.26,-1.26zm-8.46 -8.46l1.26 1.26c-0.08,-0.08 -1.68,-0.84 -1.26,-1.26zm-16.91 -33.82l1.27 1.26c-0.09,-0.08 -1.69,-0.84 -1.27,-1.26zm-8.45 -8.46l1.26 1.26c-0.08,-0.08 -1.68,-0.84 -1.26,-1.26zm-8.46 -8.46l1.26 1.26c-0.08,-0.08 -1.68,-0.84 -1.26,-1.26zm-8.46 -8.46l1.27 1.27c-0.09,-0.09 -1.69,-0.84 -1.27,-1.27zm-8.45 -8.45l1.26 1.26c-0.09,-0.08 -1.69,-0.84 -1.26,-1.26zm-8.46 -8.46l1.26 1.26c-0.08,-0.08 -1.68,-0.84 -1.26,-1.26zm-8.46 -8.46l1.26 1.26c-0.08,-0.08 -1.68,-0.84 -1.26,-1.26zm1394.9 -676.36c0.42,-0.42 1.26,0.67 1.26,1.27l-1.26 -1.27zm-8.46 0l1.78 1.78c-0.02,-0.02 -0.48,-0.48 -0.52,-0.52 -0.08,-0.08 -1.68,-0.84 -1.26,-1.26zm-8.46 0c0.42,-0.42 1.26,0.67 1.26,1.27l-1.26 -1.27zm-8.45 0c0.42,-0.42 1.26,0.67 1.26,1.27l-1.26 -1.27zm-8.46 0l1.78 1.78c-0.02,-0.02 -0.48,-0.48 -0.52,-0.52 -0.08,-0.08 -1.68,-0.84 -1.26,-1.26zm-8.46 0c0.42,-0.42 1.26,0.67 1.26,1.27l-1.26 -1.27zm-8.46 0c0.43,-0.42 1.26,0.67 1.27,1.27l-1.27 -1.27zm-8.45 0l1.78 1.78c-0.02,-0.02 -0.49,-0.48 -0.52,-0.52 -0.08,-0.08 -1.68,-0.84 -1.26,-1.26zm-8.46 0c0.42,-0.42 1.26,0.67 1.26,1.27l-1.26 -1.27zm-8.46 0c0.42,-0.42 1.26,0.67 1.26,1.27l-1.26 -1.27zm-8.45 0l1.77 1.78c-0.01,-0.02 -0.48,-0.48 -0.51,-0.52 -0.08,-0.08 -1.68,-0.84 -1.26,-1.26zm-8.46 0c0.42,-0.42 1.26,0.67 1.26,1.27l-1.26 -1.27zm-8.46 0c0.42,-0.42 1.26,0.67 1.26,1.27l-1.26 -1.27zm-8.46 0l1.78 1.78c-0.01,-0.02 -0.48,-0.48 -0.51,-0.52 -0.09,-0.08 -1.69,-0.84 -1.27,-1.26zm-8.45 0c0.42,-0.42 1.26,0.67 1.26,1.27l-1.26 -1.27zm-8.46 0c0.42,-0.42 1.26,0.67 1.26,1.27l-1.26 -1.27zm-8.46 0l1.78 1.78c-0.02,-0.02 -0.48,-0.48 -0.51,-0.52 -0.09,-0.08 -1.69,-0.84 -1.27,-1.26zm-8.45 0c0.42,-0.42 1.26,0.67 1.26,1.27l-1.26 -1.27zm-8.46 0c0.42,-0.42 1.26,0.67 1.26,1.27l-1.26 -1.27zm-8.46 0l1.78 1.78c-0.02,-0.02 -0.48,-0.48 -0.51,-0.52 -0.09,-0.08 -1.69,-0.84 -1.27,-1.26zm-8.46 0c0.43,-0.42 1.26,0.67 1.27,1.27l-1.27 -1.27zm-8.45 0c0.42,-0.42 1.26,0.67 1.26,1.27l0 -0.01c-0.08,-0.08 -1.68,-0.84 -1.26,-1.26zm-8.46 0l1.26 1.26c-0.08,-0.08 -1.68,-0.84 -1.26,-1.26zm-8.46 0l1.27 1.26c-0.09,-0.08 -1.69,-0.84 -1.27,-1.26zm-8.45 0c0.42,-0.42 1.26,0.67 1.26,1.27l0 -0.01c-0.08,-0.08 -1.68,-0.84 -1.26,-1.26zm-8.46 0l1.26 1.26c-0.08,-0.08 -1.68,-0.84 -1.26,-1.26zm-8.46 0l1.27 1.26c-0.09,-0.08 -1.69,-0.84 -1.27,-1.26zm-8.46 0c0.43,-0.42 1.26,0.67 1.27,1.27l0 -0.01c-0.09,-0.08 -1.69,-0.84 -1.27,-1.26zm-8.45 0l1.26 1.26c-0.08,-0.08 -1.68,-0.84 -1.26,-1.26zm-8.46 0l1.26 1.26c-0.08,-0.08 -1.68,-0.84 -1.26,-1.26zm-8.46 0c0.42,-0.42 1.26,0.67 1.27,1.27l0 -0.01c-0.09,-0.08 -1.69,-0.84 -1.27,-1.26zm-8.45 0l1.26 1.26c-0.08,-0.08 -1.68,-0.84 -1.26,-1.26zm-8.46 0l1.26 1.26c-0.08,-0.08 -1.68,-0.84 -1.26,-1.26zm-8.46 0c0.42,-0.42 1.26,0.67 1.26,1.27l0.01 -0.01c-0.09,-0.08 -1.69,-0.84 -1.27,-1.26zm-8.46 0l1.27 1.26c-0.09,-0.08 -1.69,-0.84 -1.27,-1.26zm-8.45 0l1.26 1.26c-0.08,-0.08 -1.68,-0.84 -1.26,-1.26zm-8.46 0c0.42,-0.42 1.26,0.67 1.26,1.27l0 -0.01c-0.08,-0.08 -1.68,-0.84 -1.26,-1.26zm-8.46 0l1.27 1.26c-0.09,-0.08 -1.69,-0.84 -1.27,-1.26zm-8.45 0c0.42,-0.42 1.26,0.67 1.26,1.27 0,0.24 0.53,0.53 0.51,0.51 -0.01,-0.02 -0.48,-0.48 -0.51,-0.52 -0.08,-0.08 -1.68,-0.84 -1.26,-1.26zm-8.46 0c0.42,-0.42 1.26,0.67 1.26,1.27l-1.26 -1.27zm-8.46 0l1.27 1.26c-0.09,-0.08 -1.69,-0.84 -1.27,-1.26zm-8.45 0c0.42,-0.42 1.26,0.67 1.26,1.27 0,0.24 0.53,0.53 0.51,0.51 -0.01,-0.02 -0.48,-0.48 -0.51,-0.52 -0.09,-0.08 -1.69,-0.84 -1.26,-1.26zm-8.46 0c0.42,-0.42 1.26,0.67 1.26,1.27l-1.26 -1.27zm-8.46 0l1.26 1.26c-0.08,-0.08 -1.68,-0.84 -1.26,-1.26zm-8.46 0c0.42,-0.42 1.26,0.67 1.27,1.27 0,0.24 0.53,0.53 0.51,0.51 -0.02,-0.02 -0.48,-0.48 -0.51,-0.52 -0.09,-0.08 -1.69,-0.84 -1.27,-1.26zm-8.45 0c0.42,-0.42 1.26,0.67 1.26,1.27l-1.26 -1.27zm-8.46 0l1.26 1.26c-0.08,-0.08 -1.68,-0.84 -1.26,-1.26zm-8.46 0c0.42,-0.42 1.26,0.67 1.26,1.27 0,0.24 0.54,0.53 0.52,0.51 -0.02,-0.02 -0.48,-0.48 -0.51,-0.52 -0.09,-0.08 -1.69,-0.84 -1.27,-1.26zm-8.45 0c0.42,-0.42 1.26,0.67 1.26,1.27l-1.26 -1.27zm-8.46 0l1.26 1.26c-0.08,-0.08 -1.68,-0.84 -1.26,-1.26zm-8.46 0c0.42,-0.42 1.26,0.67 1.26,1.27 0,0.24 0.54,0.53 0.52,0.51 -0.02,-0.02 -0.48,-0.48 -0.52,-0.52 -0.08,-0.08 -1.68,-0.84 -1.26,-1.26zm-8.46 0c0.42,-0.42 1.26,0.67 1.27,1.27l-1.27 -1.27zm-8.45 0l1.26 1.26c-0.08,-0.08 -1.68,-0.84 -1.26,-1.26zm-8.46 0c0.42,-0.42 1.26,0.67 1.26,1.27 0,0.24 0.54,0.53 0.52,0.51 -0.02,-0.02 -0.48,-0.48 -0.52,-0.52 -0.08,-0.08 -1.68,-0.84 -1.26,-1.26zm-8.46 0c0.42,-0.42 1.26,0.67 1.26,1.27l-1.26 -1.27zm-8.45 0l1.26 1.26c-0.09,-0.08 -1.69,-0.84 -1.26,-1.26zm-8.46 0c0.42,-0.42 1.26,0.67 1.26,1.27 0,0.24 0.53,0.53 0.52,0.51 -0.02,-0.02 -0.48,-0.48 -0.52,-0.52 -0.08,-0.08 -1.68,-0.84 -1.26,-1.26zm-8.46 0c0.42,-0.42 1.26,0.67 1.26,1.27l-1.26 -1.27zm-8.46 0l1.27 1.26c-0.09,-0.08 -1.69,-0.84 -1.27,-1.26zm-8.45 0c0.42,-0.42 1.26,0.67 1.26,1.27 0,0.24 0.53,0.53 0.52,0.51 -0.02,-0.02 -0.49,-0.48 -0.52,-0.52 -0.08,-0.08 -1.68,-0.84 -1.26,-1.26zm-8.46 0c0.42,-0.42 1.26,0.67 1.26,1.27l-1.26 -1.27zm-8.46 0l1.27 1.26c-0.09,-0.08 -1.69,-0.84 -1.27,-1.26zm-8.45 0c0.42,-0.42 1.26,0.67 1.26,1.27 0,0.24 0.53,0.53 0.51,0.51 -0.01,-0.02 -0.48,-0.48 -0.51,-0.52 -0.08,-0.08 -1.69,-0.84 -1.26,-1.26zm-8.46 0c0.42,-0.42 1.26,0.67 1.26,1.27l-1.26 -1.27zm-8.46 0l1.26 1.26c-0.08,-0.08 -1.68,-0.84 -1.26,-1.26zm-8.46 0c0.42,-0.42 1.26,0.67 1.27,1.27 0,0.24 0.53,0.53 0.51,0.51 -0.02,-0.02 -0.48,-0.48 -0.51,-0.52 -0.09,-0.08 -1.69,-0.84 -1.27,-1.26zm-8.45 0c0.42,-0.42 1.26,0.67 1.26,1.27l-1.26 -1.27zm-8.46 0l1.26 1.26c-0.08,-0.08 -1.68,-0.84 -1.26,-1.26zm-8.46 0c0.42,-0.42 1.26,0.67 1.26,1.27 0.01,0.24 0.54,0.53 0.52,0.51 -0.02,-0.02 -0.48,-0.48 -0.51,-0.52 -0.09,-0.08 -1.69,-0.84 -1.27,-1.26zm-8.45 0c0.42,-0.42 1.26,0.67 1.26,1.27l-1.26 -1.27zm-8.46 0l1.26 1.26c-0.08,-0.08 -1.68,-0.84 -1.26,-1.26zm-8.46 0c0.42,-0.42 1.26,0.67 1.26,1.27 0,0.24 0.54,0.53 0.52,0.51 -0.02,-0.02 -0.48,-0.48 -0.52,-0.52 -0.08,-0.08 -1.68,-0.84 -1.26,-1.26zm-8.46 0c0.42,-0.42 1.26,0.67 1.27,1.27l-1.27 -1.27zm-8.45 0l1.26 1.26c-0.08,-0.08 -1.68,-0.84 -1.26,-1.26zm-8.46 0c0.42,-0.42 1.26,0.67 1.26,1.27 0,0.24 0.54,0.53 0.52,0.51 -0.02,-0.02 -0.48,-0.48 -0.52,-0.52 -0.08,-0.08 -1.68,-0.84 -1.26,-1.26zm-8.46 0c0.42,-0.42 1.26,0.67 1.26,1.27l-1.26 -1.27zm-8.45 0l1.26 1.26c-0.08,-0.08 -1.69,-0.84 -1.26,-1.26zm-8.46 0c0.42,-0.42 1.26,0.67 1.26,1.27l-1.26 -1.27zm-8.46 0l1.26 1.26c-0.08,-0.08 -1.68,-0.84 -1.26,-1.26zm-8.46 0l1.27 1.26c-0.09,-0.08 -1.69,-0.84 -1.27,-1.26zm-8.45 0c0.42,-0.42 1.26,0.67 1.26,1.27l-1.26 -1.27zm-8.46 0l1.26 1.26c-0.08,-0.08 -1.68,-0.84 -1.26,-1.26zm-8.46 0l1.27 1.26c-0.09,-0.08 -1.69,-0.84 -1.27,-1.26zm-8.45 0c0.42,-0.42 1.26,0.67 1.26,1.27l-1.26 -1.27zm-8.46 0l1.26 1.26c-0.08,-0.08 -1.68,-0.84 -1.26,-1.26zm-8.46 0l1.26 1.26c-0.08,-0.08 -1.68,-0.84 -1.26,-1.26zm-8.46 0c0.43,-0.42 1.26,0.67 1.27,1.27l-1.27 -1.27zm-8.45 0l1.26 1.26c-0.08,-0.08 -1.68,-0.84 -1.26,-1.26zm-8.46 0l1.26 1.26c-0.08,-0.08 -1.68,-0.84 -1.26,-1.26zm-8.46 0c0.42,-0.42 1.26,0.67 1.26,1.27l-1.26 -1.27zm-8.45 0l1.26 1.26c-0.08,-0.08 -1.69,-0.84 -1.26,-1.26zm-8.46 0l1.26 1.26c-0.08,-0.08 -1.68,-0.84 -1.26,-1.26zm-8.46 0c0.42,-0.42 1.26,0.67 1.26,1.27l-1.26 -1.27zm-8.46 0l1.27 1.26c-0.09,-0.08 -1.69,-0.84 -1.27,-1.26zm-8.45 0l1.26 1.26c-0.08,-0.08 -1.68,-0.84 -1.26,-1.26zm-8.46 0c0.42,-0.42 1.26,0.67 1.26,1.27l-1.26 -1.27zm-8.46 0l1.27 1.26c-0.09,-0.08 -1.69,-0.84 -1.27,-1.26zm-8.45 0l1.26 1.26c-0.08,-0.08 -1.69,-0.84 -1.26,-1.26zm-8.46 0c0.42,-0.42 1.26,0.67 1.26,1.27l-1.26 -1.27zm-8.46 0l1.26 1.26c-0.08,-0.08 -1.68,-0.84 -1.26,-1.26zm-8.46 0l1.27 1.26c-0.09,-0.08 -1.69,-0.84 -1.27,-1.26zm-8.45 0c0.42,-0.42 1.26,0.67 1.26,1.27l-1.26 -1.27zm-8.46 0l1.26 1.26c-0.08,-0.08 -1.68,-0.84 -1.26,-1.26zm-8.46 0l1.27 1.26c-0.09,-0.08 -1.69,-0.84 -1.27,-1.26zm-8.45 0c0.42,-0.42 1.26,0.67 1.26,1.27l-1.26 -1.27zm-8.46 0l1.26 1.26c-0.08,-0.08 -1.68,-0.84 -1.26,-1.26zm-8.46 0l1.26 1.26c-0.08,-0.08 -1.68,-0.84 -1.26,-1.26zm-8.46 0c0.43,-0.42 1.26,0.67 1.27,1.27l-1.27 -1.27zm-8.45 0l1.26 1.26c-0.08,-0.08 -1.68,-0.84 -1.26,-1.26zm-8.46 0l1.26 1.26c-0.08,-0.08 -1.68,-0.84 -1.26,-1.26zm-8.46 0c0.42,-0.42 1.26,0.67 1.26,1.27l-1.26 -1.27zm-8.45 0l1.26 1.26c-0.08,-0.08 -1.68,-0.84 -1.26,-1.26zm-8.46 0l1.26 1.26c-0.08,-0.08 -1.68,-0.84 -1.26,-1.26zm-8.46 0c0.42,-0.42 1.26,0.67 1.26,1.27l-1.26 -1.27zm-8.46 0l1.27 1.26c-0.09,-0.08 -1.69,-0.84 -1.27,-1.26zm-8.45 0l1.26 1.26c-0.08,-0.08 -1.68,-0.84 -1.26,-1.26zm-8.46 0c0.42,-0.42 1.26,0.67 1.26,1.27l-1.26 -1.27zm-8.46 0l1.27 1.26c-0.09,-0.08 -1.69,-0.84 -1.27,-1.26zm-8.45 0l0 0zm-8.46 0c0.42,-0.42 1.26,0.67 1.26,1.27l-1.26 -1.27zm-8.46 0l1.27 1.26c-0.09,-0.08 -1.69,-0.84 -1.27,-1.26zm-8.46 0l0 0zm-8.45 0c0.42,-0.42 1.26,0.67 1.26,1.27l-1.26 -1.27zm-8.46 0l1.26 1.26c-0.08,-0.08 -1.68,-0.84 -1.26,-1.26zm-8.46 0l1.27 1.26c-0.09,-0.08 -1.69,-0.84 -1.27,-1.26zm-8.45 0l1.26 1.26c-0.08,-0.08 -1.68,-0.84 -1.26,-1.26zm-8.46 0l1.26 1.26c-0.08,-0.08 -1.68,-0.84 -1.26,-1.26zm-8.46 0l1.27 1.26c-0.09,-0.08 -1.69,-0.84 -1.27,-1.26zm-8.46 0l1.27 1.26c-0.09,-0.08 -1.69,-0.84 -1.27,-1.26zm-8.45 0l1.26 1.26c-0.08,-0.08 -1.68,-0.84 -1.26,-1.26zm-8.46 0l1.26 1.26c-0.08,-0.08 -1.68,-0.84 -1.26,-1.26zm-8.46 0l1.27 1.26c-0.09,-0.08 -1.69,-0.84 -1.27,-1.26zm-8.45 0l1.26 1.26c-0.08,-0.08 -1.68,-0.84 -1.26,-1.26zm-8.46 0l1.26 1.26c-0.08,-0.08 -1.68,-0.84 -1.26,-1.26zm-8.46 0l1.27 1.26c-0.09,-0.08 -1.69,-0.84 -1.27,-1.26zm-8.46 0l1.27 1.26c-0.09,-0.08 -1.69,-0.84 -1.27,-1.26zm-8.45 0l1.26 1.26c-0.08,-0.08 -1.68,-0.84 -1.26,-1.26zm-8.46 0l1.26 1.26c-0.08,-0.08 -1.68,-0.84 -1.26,-1.26zm-8.46 0l1.27 1.26c-0.09,-0.08 -1.69,-0.84 -1.27,-1.26zm-8.45 0l1.26 1.26c-0.08,-0.08 -1.68,-0.84 -1.26,-1.26zm-8.46 0l1.26 1.26c-0.08,-0.08 -1.68,-0.84 -1.26,-1.26zm-8.46 0l1.27 1.26c-0.09,-0.08 -1.69,-0.84 -1.27,-1.26zm-8.46 0l1.27 1.26c-0.09,-0.08 -1.69,-0.84 -1.27,-1.26zm-8.45 0l1.26 1.26c-0.08,-0.08 -1.68,-0.84 -1.26,-1.26zm-8.46 0l1.26 1.26c-0.08,-0.08 -1.68,-0.84 -1.26,-1.26zm-8.46 0l1.27 1.26c-0.09,-0.08 -1.69,-0.84 -1.27,-1.26zm-8.45 0l1.26 1.26c-0.08,-0.08 -1.68,-0.84 -1.26,-1.26zm-8.46 0l1.26 1.26c-0.08,-0.08 -1.68,-0.84 -1.26,-1.26zm-8.46 0l1.27 1.26c-0.09,-0.08 -1.69,-0.84 -1.27,-1.26zm-8.45 0l1.26 1.26c-0.09,-0.08 -1.69,-0.84 -1.26,-1.26zm-8.46 0l1.26 1.26c-0.08,-0.08 -1.68,-0.84 -1.26,-1.26zm-8.46 0l1.26 1.26c-0.08,-0.08 -1.68,-0.84 -1.26,-1.26zm-8.46 0l1.27 1.26c-0.09,-0.08 -1.69,-0.84 -1.27,-1.26zm-8.45 0l1.26 1.26c-0.08,-0.08 -1.68,-0.84 -1.26,-1.26zm-8.46 0l1.26 1.26c-0.08,-0.08 -1.68,-0.84 -1.26,-1.26zm-8.46 0l1.27 1.26c-0.09,-0.08 -1.69,-0.84 -1.27,-1.26zm-8.45 0l1.26 1.26c-0.09,-0.08 -1.69,-0.84 -1.26,-1.26zm-8.46 0l1.26 1.26c-0.08,-0.08 -1.68,-0.84 -1.26,-1.26zm-8.46 0l1.26 1.26c-0.08,-0.08 -1.68,-0.84 -1.26,-1.26zm-8.46 0l1.27 1.26c-0.09,-0.08 -1.69,-0.84 -1.27,-1.26zm-8.45 0l1.26 1.26c-0.08,-0.08 -1.68,-0.84 -1.26,-1.26zm-8.46 0l1.26 1.26c-0.08,-0.08 -1.68,-0.84 -1.26,-1.26zm-8.46 0l1.27 1.26c-0.09,-0.08 -1.69,-0.84 -1.27,-1.26zm-8.45 0l1.26 1.26c-0.09,-0.08 -1.69,-0.84 -1.26,-1.26zm-8.46 0l1.26 1.26c-0.08,-0.08 -1.68,-0.84 -1.26,-1.26zm-8.46 0l1.26 1.26c-0.08,-0.08 -1.68,-0.84 -1.26,-1.26zm-8.46 0l1.27 1.26c-0.09,-0.08 -1.69,-0.84 -1.27,-1.26zm-8.45 0l1.26 1.26c-0.08,-0.08 -1.68,-0.84 -1.26,-1.26zm-8.46 0l1.26 1.26c-0.08,-0.08 -1.68,-0.84 -1.26,-1.26zm-8.46 0l1.27 1.26c-0.09,-0.08 -1.69,-0.84 -1.27,-1.26zm-9.16 -0.7l2.79 629.51c-0.24,23.63 0.35,27.7 36.29,51.34 15.97,10.5 33.77,31.3 47.52,45.95l14.38 18.63c5.28,7.73 0.88,-2.46 3.05,6.65l11.79 21.16c7.84,9.57 3.2,11.66 6.73,21.14l13.26 33.82c6.3,13.21 0.35,30.36 1.99,44.39 2.11,18.1 8.78,10.51 8.73,44.38l0 1714.16c0.01,20.71 5.73,130.18 -3.52,139.3 -19.98,19.69 6.19,-17.2 -4.44,3.54 -0.83,1.62 -0.49,24.33 -0.48,28.36 0.02,11.71 2.03,19.01 -3.53,29.59 -6.97,13.28 -4.68,-2.03 -5.11,14.85 -0.61,24.19 -7.16,11.93 -8.49,23.18 -1.13,9.56 1.93,13.52 -3.29,18.84 -17.13,17.45 6.57,-20.71 -5.58,12.63 -3.37,9.27 -5.72,1.36 -7.75,11.06 -2.74,13.08 -14.78,28.44 -15.59,29.59 -3.32,4.77 -0.85,9.87 -11.29,20.43l-6.5 6.14c-0.15,0.15 -0.84,0.96 -1,1.12 -0.16,0.16 -0.85,1 -1.02,1.16l-3.54 2.99c-10.29,9.98 1.71,1.06 -4.68,13.78l-23.64 23.12c-46.95,58.59 -34.28,-1.98 -34.25,110.68 0.02,81.04 -4.39,496.96 -0.39,541.29 0.48,5.31 -2.17,8.08 7.69,12.91 12.95,6.36 2.15,-4.46 27.65,-1.05 0.2,0.03 1.1,0.14 1.32,0.13 0.27,-0.02 1.31,-0.27 1.63,-0.34 11.11,-2.55 -8.4,-4.46 10.74,-4.46 49.25,0 34.71,5.83 47.22,6.68 17.6,1.19 4.21,-6.68 20.42,-6.68l333.93 0c14.68,0 6.45,8.46 21.13,8.46l181.77 0c14.69,0 6.45,-8.46 21.14,-8.46l114.12 0c14.69,0 6.45,8.46 21.14,8.46l249.39 0c14.69,0 6.45,-8.46 21.14,-8.46l283.21 0c0.58,0 27.45,12.1 68.77,6.62 14.97,-1.99 13.65,-19.54 13.63,-35.15 -0.08,-67.68 4.93,-587.15 -0.15,-596.93 -1.56,-3 -11.1,-5.3 -17.12,-18.03 -1.53,-3.22 0.6,-0.89 -3.22,-6.44 -0.45,-0.66 -4.76,-5.51 -5.56,-6.36 -34.35,-35.94 -17.83,-21.71 -25.02,-36.8 -3.06,-6.41 0.72,1.99 -9.02,-5.91 -14.45,-11.72 -4.58,-6.36 -8.82,-14.3 -0.27,-0.5 -0.8,-1.64 -1.11,-2.14 -3.12,-5.06 0.76,0.53 -5.1,-6.37l-9.03 -12.97c-3.44,-11.7 4.24,-3.41 -4.99,-12.59 -4.53,-4.49 -1.61,-1.31 -3.32,-3.99l-8.75 -19.39c-2.76,-13.13 2.7,4.85 -0.44,-5.57 -8.06,-26.75 15.05,20.44 -5.94,-5.9 -0.16,-0.21 -0.9,-1.09 -1.03,-1.33l-1.3 -3.5c-1.16,-5.4 -0.09,-1.15 -0.03,-6.42 0.27,-24.72 0.76,-3.89 -7.13,-23.44 -3.68,-9.13 0.47,-15.43 -0.96,-25.41 -1.3,-9.04 -8.53,-5.52 -9.07,-16.57 -1.8,-36.34 5.76,-136.73 0.38,-163.05 -6.23,-30.42 -8.53,5.82 -8.54,-63.4l0 -1198.44c0.01,-66.95 0.05,-130.5 0.04,-198.68 -0.01,-15.77 -5.17,-175.52 2.25,-186.96 8.42,-13 2.5,7.4 6.3,-9.59 7.16,-31.94 -7.73,-73.39 -0.18,-105.98l2.36 -4.82c20.98,-25.94 -1.53,20.68 6.22,-5.91 2.07,-7.07 -2.12,-19.68 3.49,-27.37l4.55 -6.23c0.94,-2.6 0.53,-7.97 0.32,-12.46 -1.16,-24.96 4.64,-15.86 7.23,-19.22 6.67,-8.71 -6.69,-4.92 8.34,-25.36 5.96,-8.11 6.25,-28.94 15.75,-41.12l9.56 -16.03c0.23,-0.46 0.74,-1.66 0.97,-2.09 0.21,-0.39 0.76,-1.55 0.97,-1.9l4.31 -5.05c0.15,-0.14 0.97,-0.75 1.12,-0.89l16.7 -24.84c0.5,-0.68 1.89,-2.67 2.45,-3.38 1.24,-1.59 -1.63,0.4 4.5,-5.57l8.29 -6.43c0.39,-0.36 1.34,-1.18 1.7,-1.55 3.21,-3.31 -1.85,-5.31 11.12,-12.85 17.05,-9.89 9.63,-4.19 14.82,-1.75l4.93 -3.52c-0.32,-74.76 2.68,-636.71 -4.22,-660.87 -139.54,0.28 -1424.92,-2.09 -1447.03,4.23z"/>
  </g>
 </g>
</svg>
